<?xml version="1.0" encoding="UTF-8" standalone="no"?>
<!DOCTYPE svg PUBLIC "-//W3C//DTD SVG 1.1//EN" "http://www.w3.org/Graphics/SVG/1.1/DTD/svg11.dtd">
<svg width="100%" height="100%" viewBox="0 0 862 507" version="1.1" xmlns="http://www.w3.org/2000/svg" xmlns:xlink="http://www.w3.org/1999/xlink" xml:space="preserve" xmlns:serif="http://www.serif.com/" style="fill-rule:evenodd;clip-rule:evenodd;stroke-linejoin:round;stroke-miterlimit:1.5;">
    <g transform="matrix(1,0,0,1,-2477.93,-696.543)">
        <g transform="matrix(0.866025,-0.5,0.5,0.866025,-43.2327,1507.84)">
            <g transform="matrix(1.5476,0,0,1.53928,1061.37,-294.3)">
                <rect x="935.431" y="643.707" width="172.138" height="259.862"/>
                <path d="M1107.57,643.707L935.431,643.707L935.431,903.569L1107.57,903.569L1107.57,643.707ZM1088.18,663.196L1088.18,884.079C1088.18,884.079 954.816,884.079 954.816,884.079C954.816,884.079 954.816,663.196 954.816,663.196L1088.18,663.196Z" style="fill:white;"/>
            </g>
            <g transform="matrix(0.871394,0,0,0.577229,1752.11,382.934)">
                <rect x="935.431" y="643.707" width="172.138" height="259.862"/>
                <path d="M1107.57,643.707L935.431,643.707L935.431,903.569L1107.57,903.569L1107.57,643.707ZM1073.14,695.679L1073.14,851.596C1073.14,851.597 969.859,851.597 969.859,851.597C969.859,851.597 969.859,695.679 969.859,695.679L1073.14,695.679Z" style="fill:white;"/>
            </g>
            <g transform="matrix(0.375,0,0,1,2216.46,310.793)">
                <path d="M935.431,643.707L1335.43,643.707" style="fill:none;stroke:white;stroke-width:39.73px;"/>
            </g>
            <g transform="matrix(0.375,0,0,1,2216.46,375.793)">
                <path d="M935.431,643.707L1335.43,643.707" style="fill:none;stroke:white;stroke-width:39.73px;"/>
            </g>
        </g>
        <g transform="matrix(1,0,0,1,266.4,1.13687e-13)">
            <g transform="matrix(1.5476,0,0,1.53928,1061.37,-294.3)">
                <rect x="935.431" y="643.707" width="172.138" height="259.862"/>
                <path d="M1107.57,643.707L935.431,643.707L935.431,903.569L1107.57,903.569L1107.57,643.707ZM1088.18,663.196L1088.18,884.079C1088.18,884.079 954.816,884.079 954.816,884.079C954.816,835.862 954.816,711.414 954.816,663.196L1088.18,663.196Z" style="fill:white;"/>
            </g>
            <g transform="matrix(0.871394,0,0,0.577229,1752.11,382.934)">
                <rect x="935.431" y="643.707" width="172.138" height="259.862"/>
                <path d="M1107.57,643.707L935.431,643.707L935.431,903.569L1107.57,903.569L1107.57,643.707ZM1073.14,695.679L1073.14,851.596C1073.14,851.597 969.859,851.597 969.859,851.597C969.859,851.597 969.859,695.679 969.859,695.679L1073.14,695.679Z" style="fill:white;"/>
            </g>
            <g transform="matrix(0.375,0,0,1,2216.46,310.793)">
                <path d="M935.431,643.707L1335.43,643.707" style="fill:none;stroke:white;stroke-width:39.73px;"/>
            </g>
            <g transform="matrix(0.375,0,0,1,2216.46,375.793)">
                <path d="M935.431,643.707L1335.43,643.707" style="fill:none;stroke:white;stroke-width:39.73px;"/>
            </g>
        </g>
        <g transform="matrix(0.866025,0.5,-0.5,0.866025,1284.02,-1134.41)">
            <g transform="matrix(1.5476,0,0,1.53928,1061.37,-294.3)">
                <rect x="935.431" y="643.707" width="172.138" height="259.862"/>
                <path d="M1107.57,643.707L935.431,643.707L935.431,903.569L1107.57,903.569L1107.57,643.707ZM1088.18,663.196L1088.18,884.079C1088.18,884.079 954.816,884.079 954.816,884.079C954.816,884.079 954.816,663.196 954.816,663.196L1088.18,663.196Z" style="fill:white;"/>
            </g>
            <g transform="matrix(0.871394,0,0,0.577229,1752.11,382.934)">
                <rect x="935.431" y="643.707" width="172.138" height="259.862"/>
                <path d="M1107.57,643.707L935.431,643.707L935.431,903.569L1107.57,903.569L1107.57,643.707ZM1073.14,695.679L1073.14,851.596C1073.14,851.597 969.859,851.597 969.859,851.597C969.859,851.597 969.859,695.679 969.859,695.679L1073.14,695.679Z" style="fill:white;"/>
            </g>
            <g transform="matrix(0.375,0,0,1,2216.46,310.793)">
                <path d="M935.431,643.707L1335.43,643.707" style="fill:none;stroke:white;stroke-width:39.73px;"/>
            </g>
            <g transform="matrix(0.375,0,0,1,2216.46,375.793)">
                <path d="M935.431,643.707L1335.43,643.707" style="fill:none;stroke:white;stroke-width:39.73px;"/>
            </g>
        </g>
    </g>
</svg>
