<?xml version="1.0" encoding="UTF-8" standalone="no"?>
<!DOCTYPE svg PUBLIC "-//W3C//DTD SVG 1.1//EN" "http://www.w3.org/Graphics/SVG/1.1/DTD/svg11.dtd">
<svg width="100%" height="100%" viewBox="0 0 528 403" version="1.1" xmlns="http://www.w3.org/2000/svg" xmlns:xlink="http://www.w3.org/1999/xlink" xml:space="preserve" xmlns:serif="http://www.serif.com/" style="fill-rule:evenodd;clip-rule:evenodd;stroke-linecap:square;stroke-miterlimit:1.5;">
    <g transform="matrix(1,0,0,1,-2841.51,-1479.97)">
        <g transform="matrix(1,0,0,1,-93.565,-53.773)">
            <g transform="matrix(1,0,0,1,-44.7392,7.5)">
                <g>
                    <g transform="matrix(0.975975,0,0,0.975975,85.8651,-22.4295)">
                        <circle cx="3088.3" cy="1678" r="30.738" style="fill:white;"/>
                        <circle cx="3088.3" cy="1678" r="30.738" style="fill:white;"/>
                    </g>
                    <g transform="matrix(0.813313,0,0,0.813313,543.716,270.518)">
                        <circle cx="3088.3" cy="1678" r="30.738" style="fill:white;"/>
                        <path d="M3088.3,1647.26C3105.26,1647.26 3119.04,1661.04 3119.04,1678C3119.04,1694.97 3105.26,1708.74 3088.3,1708.74C3071.33,1708.74 3057.56,1694.97 3057.56,1678C3057.56,1661.04 3071.33,1647.26 3088.3,1647.26ZM3088.3,1684.15C3084.9,1684.15 3082.15,1681.39 3082.15,1678C3082.15,1674.61 3084.9,1671.85 3088.3,1671.85C3091.69,1671.85 3094.45,1674.61 3094.45,1678C3094.45,1681.39 3091.69,1684.15 3088.3,1684.15Z" style="fill:white;"/>
                    </g>
                    <g transform="matrix(0.975975,0,0,0.975975,101.365,-7.42954)">
                        <circle cx="3088.3" cy="1678" r="30.738" style="fill:white;"/>
                        <circle cx="3088.3" cy="1678" r="30.738" style="fill:white;"/>
                    </g>
                    <g transform="matrix(0.952489,0,0,0.680329,-1.47428,527.198)">
                        <rect x="3209.42" y="1621.36" width="62.993" height="44.096" style="fill:white;"/>
                        <rect x="3209.42" y="1621.36" width="62.993" height="44.096" style="fill:white;"/>
                    </g>
                </g>
                <g transform="matrix(0.65065,0,0,0.65065,1056.07,513.466)">
                    <circle cx="3088.3" cy="1678" r="30.738" style="fill:white;"/>
                    <path d="M3088.3,1647.26C3105.26,1647.26 3119.04,1661.04 3119.04,1678C3119.04,1694.97 3105.26,1708.74 3088.3,1708.74C3071.33,1708.74 3057.56,1694.97 3057.56,1678C3057.56,1661.04 3071.33,1647.26 3088.3,1647.26ZM3088.3,1693.37C3079.82,1693.37 3072.93,1686.48 3072.93,1678C3072.93,1669.52 3079.82,1662.63 3088.3,1662.63C3096.78,1662.63 3103.67,1669.52 3103.67,1678C3103.67,1686.48 3096.78,1693.37 3088.3,1693.37Z" style="fill:white;"/>
                </g>
            </g>
            <g transform="matrix(-1,0,0,1,6290.65,-3.85687)">
                <g transform="matrix(0.975975,0,0,0.975975,59.1593,-20.0918)">
                    <circle cx="3088.3" cy="1678" r="30.738" style="fill:white;"/>
                    <circle cx="3088.3" cy="1678" r="30.738" style="fill:white;"/>
                </g>
                <g transform="matrix(0.813313,0,0,0.813313,543.716,270.518)">
                    <circle cx="3088.3" cy="1678" r="30.738" style="fill:white;"/>
                    <path d="M3088.3,1647.26C3105.26,1647.26 3119.04,1661.04 3119.04,1678C3119.04,1694.97 3105.26,1708.74 3088.3,1708.74C3071.33,1708.74 3057.56,1694.97 3057.56,1678C3057.56,1661.04 3071.33,1647.26 3088.3,1647.26ZM3088.3,1684.15C3091.69,1684.15 3094.45,1681.39 3094.45,1678C3094.45,1674.61 3091.69,1671.85 3088.3,1671.85C3084.9,1671.85 3082.15,1674.61 3082.15,1678C3082.15,1681.39 3084.9,1684.15 3088.3,1684.15Z" style="fill:white;"/>
                </g>
                <g transform="matrix(0.813313,0,0,0.813313,603.923,270.518)">
                    <circle cx="3088.3" cy="1678" r="30.738" style="fill:white;"/>
                    <path d="M3088.3,1647.26C3105.26,1647.26 3119.04,1661.04 3119.04,1678C3119.04,1694.97 3105.26,1708.74 3088.3,1708.74C3071.33,1708.74 3057.56,1694.97 3057.56,1678C3057.56,1661.04 3071.33,1647.26 3088.3,1647.26ZM3088.3,1684.15C3091.69,1684.15 3094.45,1681.39 3094.45,1678C3094.45,1674.61 3091.69,1671.85 3088.3,1671.85C3084.9,1671.85 3082.15,1674.61 3082.15,1678C3082.15,1681.39 3084.9,1684.15 3088.3,1684.15Z" style="fill:white;"/>
                </g>
                <g transform="matrix(0.952489,0,0,0.680329,-1.47428,527.198)">
                    <rect x="3209.42" y="1621.36" width="62.993" height="44.096" style="fill:white;"/>
                    <rect x="3209.42" y="1621.36" width="62.993" height="44.096" style="fill:white;"/>
                </g>
            </g>
            <g transform="matrix(-0.8,0,0,0.8,5618.43,388.194)">
                <g transform="matrix(0.975975,0,0,0.975975,85.8651,-22.4295)">
                    <circle cx="3088.3" cy="1678" r="30.738" style="fill:white;"/>
                    <path d="M3088.3,1647.26C3105.26,1647.26 3119.04,1661.04 3119.04,1678C3119.04,1694.97 3105.26,1708.74 3088.3,1708.74C3071.33,1708.74 3057.56,1694.97 3057.56,1678C3057.56,1661.04 3071.33,1647.26 3088.3,1647.26ZM3088.3,1685.68C3092.54,1685.68 3095.98,1682.24 3095.98,1678C3095.98,1673.76 3092.54,1670.32 3088.3,1670.32C3084.06,1670.32 3080.61,1673.76 3080.61,1678C3080.61,1682.24 3084.06,1685.68 3088.3,1685.68Z" style="fill:white;"/>
                </g>
                <g transform="matrix(0.813313,0,0,0.813313,543.716,270.518)">
                    <circle cx="3088.3" cy="1678" r="30.738" style="fill:white;"/>
                    <path d="M3088.3,1647.26C3105.26,1647.26 3119.04,1661.04 3119.04,1678C3119.04,1694.97 3105.26,1708.74 3088.3,1708.74C3071.33,1708.74 3057.56,1694.97 3057.56,1678C3057.56,1661.04 3071.33,1647.26 3088.3,1647.26ZM3088.3,1693.37C3096.78,1693.37 3103.67,1686.48 3103.67,1678C3103.67,1669.52 3096.78,1662.63 3088.3,1662.63C3079.82,1662.63 3072.93,1669.52 3072.93,1678C3072.93,1686.48 3079.82,1693.37 3088.3,1693.37Z" style="fill:white;"/>
                </g>
                <g transform="matrix(0.813313,0,0,0.813313,603.923,270.518)">
                    <circle cx="3088.3" cy="1678" r="30.738" style="fill:white;"/>
                    <path d="M3088.3,1647.26C3105.26,1647.26 3119.04,1661.04 3119.04,1678C3119.04,1694.97 3105.26,1708.74 3088.3,1708.74C3071.33,1708.74 3057.56,1694.97 3057.56,1678C3057.56,1661.04 3071.33,1647.26 3088.3,1647.26ZM3088.3,1693.37C3096.78,1693.37 3103.67,1686.48 3103.67,1678C3103.67,1669.52 3096.78,1662.63 3088.3,1662.63C3079.82,1662.63 3072.93,1669.52 3072.93,1678C3072.93,1686.48 3079.82,1693.37 3088.3,1693.37Z" style="fill:white;"/>
                </g>
                <g transform="matrix(0.952489,0,0,0.680329,-1.47428,527.198)">
                    <rect x="3209.42" y="1621.36" width="62.993" height="44.096" style="fill:white;"/>
                    <rect x="3209.42" y="1621.36" width="62.993" height="44.096" style="fill:white;"/>
                </g>
            </g>
            <g>
                <g transform="matrix(0.506873,-0.258265,0.258265,0.506873,1235.85,1686.84)">
                    <path d="M3348.6,1547.26L3295.86,1547.26" style="fill:none;stroke:white;stroke-width:26.37px;"/>
                </g>
                <g transform="matrix(0.402257,-0.402257,0.402257,0.402257,1387.28,2363.78)">
                    <path d="M3348.6,1547.26L3295.86,1547.26" style="fill:none;stroke:white;stroke-width:26.37px;"/>
                </g>
                <g transform="matrix(0.258265,-0.506873,0.506873,0.258265,1740.49,2960.8)">
                    <path d="M3348.6,1547.26L3295.86,1547.26" style="fill:none;stroke:white;stroke-width:26.37px;"/>
                </g>
            </g>
            <g transform="matrix(1,0,0,1,93.565,53.773)">
                <path d="M2855.03,1728.9C2855.03,1728.9 2915.7,1704.64 2977.12,1705.93C3070.27,1707.89 3086.47,1773.64 3191.11,1782.08C3279.04,1789.17 3355.03,1763.07 3355.03,1763.07M3355.03,1493.49L2855.03,1493.49L2855.03,1868.49L3355.03,1868.49L3355.03,1493.49Z" style="fill:none;stroke:white;stroke-width:15px;stroke-linecap:butt;"/>
            </g>
            <path d="M3448.6,1647.26C3393.4,1647.26 3348.6,1602.45 3348.6,1547.26L3448.6,1547.26L3448.6,1647.26Z" style="fill:white;"/>
            <path d="M3448.6,1647.26C3393.4,1647.26 3348.6,1602.45 3348.6,1547.26L3448.6,1547.26L3448.6,1647.26ZM3418.6,1610.52C3404.05,1603.6 3392.26,1591.81 3385.34,1577.26C3385.34,1577.26 3418.6,1577.26 3418.6,1577.26C3418.6,1577.26 3418.6,1610.52 3418.6,1610.52L3418.6,1610.52Z" style="fill:white;"/>
        </g>
    </g>
</svg>
