<?xml version="1.0" encoding="UTF-8" standalone="no"?>
<!DOCTYPE svg PUBLIC "-//W3C//DTD SVG 1.1//EN" "http://www.w3.org/Graphics/SVG/1.1/DTD/svg11.dtd">
<svg width="100%" height="100%" viewBox="0 0 242 242" version="1.1" xmlns="http://www.w3.org/2000/svg" xmlns:xlink="http://www.w3.org/1999/xlink" xml:space="preserve" xmlns:serif="http://www.serif.com/" style="fill-rule:evenodd;clip-rule:evenodd;stroke-linejoin:round;stroke-miterlimit:1.5;">
    <g transform="matrix(1,0,0,1,-2230.69,-853.948)">
        <g transform="matrix(0.496592,0,0,0.525354,982.054,791.643)">
            <path d="M2592.41,406.903C2563.01,379.513 2544.61,340.462 2544.61,297.148C2544.61,214.361 2611.82,147.148 2694.61,147.148C2745.98,147.148 2791.35,173.026 2818.4,212.454C2826.85,210.647 2835.62,209.696 2844.61,209.696C2913.6,209.696 2969.61,265.707 2969.61,334.696C2969.61,390.777 2932.6,438.282 2881.69,454.095C2859.68,509.597 2805.49,548.88 2742.2,548.88C2662.1,548.88 2596.58,485.965 2592.41,406.903Z" style="fill-opacity:0;stroke:white;stroke-width:58.69px;"/>
        </g>
    </g>
</svg>
