<?xml version="1.0" encoding="UTF-8" standalone="no"?>
<!DOCTYPE svg PUBLIC "-//W3C//DTD SVG 1.1//EN" "http://www.w3.org/Graphics/SVG/1.1/DTD/svg11.dtd">
<svg width="100%" height="100%" viewBox="0 0 400 400" version="1.1" xmlns="http://www.w3.org/2000/svg" xmlns:xlink="http://www.w3.org/1999/xlink" xml:space="preserve" xmlns:serif="http://www.serif.com/" style="fill-rule:evenodd;clip-rule:evenodd;stroke-linejoin:round;stroke-miterlimit:2;">
    <g transform="matrix(1,0,0,1,-2256.74,-1306.85)">
        <g transform="matrix(1.32194,0,0,1.32194,-790.92,-485.115)">
            <circle cx="2456.74" cy="1506.85" r="151.293"/>
            <path d="M2456.74,1355.56C2540.24,1355.56 2608.03,1423.35 2608.03,1506.85C2608.03,1590.35 2540.24,1658.15 2456.74,1658.15C2373.24,1658.15 2305.45,1590.35 2305.45,1506.85C2305.45,1423.35 2373.24,1355.56 2456.74,1355.56ZM2456.74,1378.25C2527.72,1378.25 2585.34,1435.88 2585.34,1506.85C2585.34,1577.83 2527.72,1635.45 2456.74,1635.45C2385.76,1635.45 2328.14,1577.83 2328.14,1506.85C2328.14,1435.88 2385.76,1378.25 2456.74,1378.25Z" style="fill:white;"/>
        </g>
    </g>
</svg>
