<?xml version="1.0" encoding="UTF-8" standalone="no"?>
<!DOCTYPE svg PUBLIC "-//W3C//DTD SVG 1.1//EN" "http://www.w3.org/Graphics/SVG/1.1/DTD/svg11.dtd">
<svg width="100%" height="100%" viewBox="0 0 400 500" version="1.1" xmlns="http://www.w3.org/2000/svg" xmlns:xlink="http://www.w3.org/1999/xlink" xml:space="preserve" xmlns:serif="http://www.serif.com/" style="fill-rule:evenodd;clip-rule:evenodd;stroke-linejoin:round;stroke-miterlimit:2;">
    <g transform="matrix(1,0,0,1,-1633.69,-646.543)">
        <g transform="matrix(2.32372,0,0,1.9241,-539.985,-592.011)">
            <path d="M1107.57,695.679L1064.53,643.707L935.431,643.707L935.431,903.569L1107.57,903.569L1107.57,695.679Z" style="fill-opacity:0;"/>
            <path d="M1107.57,695.679L1064.53,643.707L935.431,643.707L935.431,903.569L1107.57,903.569L1107.57,695.679ZM1094.66,702.138L1094.66,887.977C1094.66,887.977 986.262,887.977 948.341,887.977C948.341,887.977 948.341,659.299 948.341,659.299C948.341,659.299 1059.19,659.299 1059.19,659.299L1094.66,702.138Z" style="fill:white;"/>
        </g>
    </g>
</svg>
