<?xml version="1.0" encoding="UTF-8" standalone="no"?>
<!DOCTYPE svg PUBLIC "-//W3C//DTD SVG 1.1//EN" "http://www.w3.org/Graphics/SVG/1.1/DTD/svg11.dtd">
<svg width="100%" height="100%" viewBox="0 0 300 300" version="1.1" xmlns="http://www.w3.org/2000/svg" xmlns:xlink="http://www.w3.org/1999/xlink" xml:space="preserve" xmlns:serif="http://www.serif.com/" style="fill-rule:evenodd;clip-rule:evenodd;stroke-linejoin:round;stroke-miterlimit:2;">
    <g transform="matrix(1,0,0,1,-2154.05,-398.88)">
        <path d="M2274.05,518.88L2274.05,458.88L2244.05,458.88L2304.05,398.88L2364.05,458.88L2334.05,458.88L2334.05,518.88L2394.05,518.88L2394.05,488.88L2454.05,548.88L2394.05,608.88L2394.05,578.88L2334.05,578.88L2334.05,638.88L2364.05,638.88L2304.05,698.88L2244.05,638.88L2274.05,638.88L2274.05,578.88L2214.05,578.88L2214.05,608.88L2154.05,548.88L2214.05,488.88L2214.05,518.88L2274.05,518.88Z" style="fill-opacity:0;"/>
        <path d="M2274.05,518.88L2274.05,458.88L2244.05,458.88L2304.05,398.88L2364.05,458.88L2334.05,458.88L2334.05,518.88L2394.05,518.88L2394.05,488.88L2454.05,548.88L2394.05,608.88L2394.05,578.88L2334.05,578.88L2334.05,638.88L2364.05,638.88L2304.05,698.88L2244.05,638.88L2274.05,638.88L2274.05,578.88L2214.05,578.88L2214.05,608.88L2154.05,548.88L2214.05,488.88L2214.05,518.88L2274.05,518.88Z" style="fill:white;"/>
    </g>
</svg>
