<?xml version="1.0" encoding="UTF-8" standalone="no"?>
<!DOCTYPE svg PUBLIC "-//W3C//DTD SVG 1.1//EN" "http://www.w3.org/Graphics/SVG/1.1/DTD/svg11.dtd">
<svg width="100%" height="100%" viewBox="0 0 3840 2160" version="1.1" xmlns="http://www.w3.org/2000/svg" xmlns:xlink="http://www.w3.org/1999/xlink" xml:space="preserve" xmlns:serif="http://www.serif.com/" style="fill-rule:evenodd;clip-rule:evenodd;stroke-linejoin:round;stroke-miterlimit:1.5;">
    <g transform="matrix(1,0,0,1,-1,0)">
        <rect x="-57.931" y="-118.345" width="4267.29" height="2529.78"/>
    </g>
    <g transform="matrix(0.457282,0.457282,-0.457282,0.457282,1674.62,-1155.32)">
        <circle cx="3301.46" cy="272.038" r="77.316" style="fill-opacity:0;stroke:white;stroke-width:46.39px;"/>
    </g>
    <g transform="matrix(0.457282,0.457282,-0.457282,0.457282,1886.76,-1367.46)">
        <circle cx="3301.46" cy="272.038" r="77.316" style="fill-opacity:0;stroke:white;stroke-width:46.39px;"/>
    </g>
    <g transform="matrix(0.707107,0.707107,-0.707107,0.707107,1190.84,-2129.53)">
        <path d="M3165.98,272.7L3165.98,472.713" style="fill:none;stroke:white;stroke-width:30px;"/>
    </g>
    <g transform="matrix(0.705882,0,0,0.746766,748.414,37.2629)">
        <path d="M2592.41,406.903C2563.01,379.513 2544.61,340.462 2544.61,297.148C2544.61,214.361 2611.82,147.148 2694.61,147.148C2745.98,147.148 2791.35,173.026 2818.4,212.454C2826.85,210.647 2835.62,209.696 2844.61,209.696C2913.6,209.696 2969.61,265.707 2969.61,334.696C2969.61,390.777 2932.6,438.282 2881.69,454.095C2859.68,509.597 2805.49,548.88 2742.2,548.88C2662.1,548.88 2596.58,485.965 2592.41,406.903Z" style="fill-opacity:0;stroke:white;stroke-width:41.29px;"/>
    </g>
    <path d="M2274.05,518.88L2274.05,458.88L2244.05,458.88L2304.05,398.88L2364.05,458.88L2334.05,458.88L2334.05,518.88L2394.05,518.88L2394.05,488.88L2454.05,548.88L2394.05,608.88L2394.05,578.88L2334.05,578.88L2334.05,638.88L2364.05,638.88L2304.05,698.88L2244.05,638.88L2274.05,638.88L2274.05,578.88L2214.05,578.88L2214.05,608.88L2154.05,548.88L2214.05,488.88L2214.05,518.88L2274.05,518.88Z" style="fill-opacity:0;"/>
    <path d="M2274.05,518.88L2274.05,458.88L2244.05,458.88L2304.05,398.88L2364.05,458.88L2334.05,458.88L2334.05,518.88L2394.05,518.88L2394.05,488.88L2454.05,548.88L2394.05,608.88L2394.05,578.88L2334.05,578.88L2334.05,638.88L2364.05,638.88L2304.05,698.88L2244.05,638.88L2274.05,638.88L2274.05,578.88L2214.05,578.88L2214.05,608.88L2154.05,548.88L2214.05,488.88L2214.05,518.88L2274.05,518.88Z" style="fill:white;"/>
    <g transform="matrix(0.714347,0,0,0.923187,402.437,128.227)">
        <rect x="1128.86" y="1506.85" width="559.952" height="324.961" style="fill-opacity:0;"/>
        <path d="M1688.81,1506.85L1128.86,1506.85L1128.86,1831.81L1688.81,1831.81L1688.81,1506.85ZM1646.81,1539.35L1646.81,1799.32C1646.81,1799.32 1170.85,1799.32 1170.85,1799.32C1170.85,1799.32 1170.85,1615.54 1170.85,1539.35L1646.81,1539.35Z" style="fill:white;"/>
    </g>
    <g transform="matrix(0.714347,0,0,0.923187,1027.3,348.075)">
        <rect x="1128.86" y="1506.85" width="559.952" height="324.961" style="fill:white;"/>
        <path d="M1688.81,1506.85L1128.86,1506.85L1128.86,1831.81L1688.81,1831.81L1688.81,1506.85ZM1646.81,1539.35L1646.81,1799.32C1646.81,1799.32 1170.85,1799.32 1170.85,1799.32C1170.85,1737.06 1170.85,1601.61 1170.85,1539.35L1646.81,1539.35Z" style="fill:white;"/>
    </g>
    <g transform="matrix(0.446739,0,0,0.446739,1429.96,904.423)">
        <path d="M2456.74,1506.85L2722.19,1772.31" style="fill:none;stroke:white;stroke-width:67.15px;"/>
    </g>
    <path d="M2758.03,663.774L2758.03,963.774M2908.03,813.774L2608.03,813.774" style="fill:none;stroke:white;stroke-width:60px;"/>
    <g transform="matrix(0.707107,-0.707107,0.707107,0.707107,645.853,2197.56)">
        <path d="M2758.03,663.774L2758.03,963.774M2908.03,813.774L2608.03,813.774" style="fill:none;stroke:white;stroke-width:60px;"/>
    </g>
    <g transform="matrix(2.32372,0,0,1.9241,-1238.25,-594.848)">
        <path d="M1107.57,695.679L1064.53,643.707L935.431,643.707L935.431,903.569L1107.57,903.569L1107.57,695.679Z" style="fill-opacity:0;"/>
        <path d="M1107.57,695.679L1064.53,643.707L935.431,643.707L935.431,903.569L1107.57,903.569L1107.57,695.679ZM1094.66,702.138L1094.66,887.977C1094.66,887.977 948.341,887.977 948.341,887.977C948.341,887.977 948.341,659.299 948.341,659.299C948.341,659.299 1059.19,659.299 1059.19,659.299L1094.66,702.138Z" style="fill:white;"/>
    </g>
    <g transform="matrix(2.32372,0,0,1.9241,-1863.24,-592.011)">
        <path d="M1107.57,695.679L1064.53,643.707L935.431,643.707L935.431,903.569L1107.57,903.569L1107.57,695.679Z" style="fill:white;"/>
        <path d="M1107.57,695.679L1064.53,643.707L935.431,643.707L935.431,903.569L1107.57,903.569L1107.57,695.679ZM1094.66,702.138L1094.66,887.977C1094.66,887.977 948.341,887.977 948.341,887.977C948.341,887.977 948.341,659.299 948.341,659.299C948.341,659.299 1059.19,659.299 1059.19,659.299L1094.66,702.138Z" style="fill:white;"/>
    </g>
    <g transform="matrix(2.32372,0,0,1.9241,-539.985,-592.011)">
        <path d="M1107.57,695.679L1064.53,643.707L935.431,643.707L935.431,903.569L1107.57,903.569L1107.57,695.679Z" style="fill-opacity:0;"/>
        <path d="M1107.57,695.679L1064.53,643.707L935.431,643.707L935.431,903.569L1107.57,903.569L1107.57,695.679ZM1094.66,702.138L1094.66,887.977C1094.66,887.977 986.262,887.977 948.341,887.977C948.341,887.977 948.341,659.299 948.341,659.299C948.341,659.299 1059.19,659.299 1059.19,659.299L1094.66,702.138Z" style="fill:white;"/>
    </g>
    <g transform="matrix(0.666816,-0.666816,0.666816,0.666816,13.1268,1521.45)">
        <circle cx="1833.69" cy="896.543" r="132.553" style="fill-opacity:0;"/>
        <path d="M1833.69,763.99C1906.85,763.99 1966.25,823.385 1966.25,896.543C1966.25,969.701 1906.85,1029.1 1833.69,1029.1C1760.54,1029.1 1701.14,969.701 1701.14,896.543C1701.14,823.385 1760.54,763.99 1833.69,763.99ZM1833.69,795.803C1889.29,795.803 1934.43,840.943 1934.43,896.543C1934.43,952.143 1889.29,997.283 1833.69,997.283C1778.09,997.283 1732.95,952.143 1732.95,896.543C1732.95,840.943 1778.09,795.803 1833.69,795.803Z" style="fill:white;"/>
    </g>
    <g transform="matrix(0.418449,-0.418449,0.418449,0.418449,722.343,1319.81)">
        <path d="M1833.69,1004.34L1833.69,1120.85" style="fill:none;stroke:white;stroke-width:50.69px;"/>
    </g>
    <g transform="matrix(0.5,0,0,1,567.684,150)">
        <path d="M935.431,643.707L1335.43,643.707" style="fill:none;stroke:white;stroke-width:37.95px;"/>
    </g>
    <g transform="matrix(0.5,0,0,1,567.684,250)">
        <path d="M935.431,643.707L1335.43,643.707" style="fill:none;stroke:white;stroke-width:37.95px;"/>
    </g>
    <g transform="matrix(0.5,0,0,1,567.684,350)">
        <path d="M935.431,643.707L1335.43,643.707" style="fill:none;stroke:white;stroke-width:37.95px;"/>
    </g>
    <g transform="matrix(1.32194,0,0,1.32194,-790.92,-485.115)">
        <circle cx="2456.74" cy="1506.85" r="151.293" style="fill-opacity:0;"/>
        <path d="M2456.74,1355.56C2540.24,1355.56 2608.03,1423.35 2608.03,1506.85C2608.03,1590.35 2540.24,1658.15 2456.74,1658.15C2373.24,1658.15 2305.45,1590.35 2305.45,1506.85C2305.45,1423.35 2373.24,1355.56 2456.74,1355.56ZM2456.74,1378.25C2527.72,1378.25 2585.34,1435.88 2585.34,1506.85C2585.34,1577.83 2527.72,1635.45 2456.74,1635.45C2385.76,1635.45 2328.14,1577.83 2328.14,1506.85C2328.14,1435.88 2385.76,1378.25 2456.74,1378.25Z" style="fill:white;"/>
    </g>
    <g transform="matrix(1.01712,0,0,1.01712,351.568,-43.4783)">
        <circle cx="422.731" cy="1556.03" r="196.635" style="fill:white;"/>
        <path d="M422.731,1359.39C531.257,1359.39 619.366,1447.5 619.366,1556.03C619.366,1664.55 531.257,1752.66 422.731,1752.66C314.206,1752.66 226.097,1664.55 226.097,1556.03C226.097,1447.5 314.206,1359.39 422.731,1359.39ZM422.731,1388.89C514.978,1388.89 589.87,1463.78 589.87,1556.03C589.87,1648.27 514.978,1723.17 422.731,1723.17C330.484,1723.17 255.592,1648.27 255.592,1556.03C255.592,1463.78 330.484,1388.89 422.731,1388.89Z" style="fill:white;"/>
    </g>
    <g>
        <g transform="matrix(-0.707107,0.707107,-0.161852,-0.161852,1848.5,-469.439)">
            <path d="M1032.29,216.646L1032.29,478.777" style="fill:none;stroke:white;stroke-width:41.36px;stroke-linecap:square;stroke-linejoin:miter;"/>
        </g>
        <g transform="matrix(0.707107,0.707107,-0.161852,0.161852,388.627,-539.568)">
            <path d="M1032.29,216.646L1032.29,478.777" style="fill:none;stroke:white;stroke-width:41.36px;stroke-linecap:square;stroke-linejoin:miter;"/>
        </g>
    </g>
</svg>
