<?xml version="1.0" encoding="UTF-8" standalone="no"?>
<!DOCTYPE svg PUBLIC "-//W3C//DTD SVG 1.1//EN" "http://www.w3.org/Graphics/SVG/1.1/DTD/svg11.dtd">
<svg width="100%" height="100%" viewBox="0 0 512 512" version="1.1" xmlns="http://www.w3.org/2000/svg" xmlns:xlink="http://www.w3.org/1999/xlink" xml:space="preserve" xmlns:serif="http://www.serif.com/" style="fill-rule:evenodd;clip-rule:evenodd;stroke-linejoin:round;stroke-miterlimit:2;">
    <g transform="matrix(1,0,0,1,-480.736,-1261.41)">
        <g transform="matrix(1,0,0,1,-1548.82,449.434)">
            <g transform="matrix(1,0,0,1,-1107.64,168.162)">
                <path d="M3422.76,1017.13L3420.85,1020.31C3420.85,1020.31 3428.45,1017.26 3435.03,1018.08C3435.55,1018.17 3436.07,1018.26 3436.59,1018.36L3435.65,1021.75C3435.65,1021.75 3441.26,1019.85 3447.74,1021.03L3447.74,1021.03C3447.28,1021.78 3446.62,1025.06 3446.62,1025.06C3446.62,1025.06 3455.99,1023.12 3460.85,1025.45L3460.1,1028.73C3460.1,1028.73 3464.8,1028.47 3471.66,1030.17L3471.66,1030.17L3470.61,1032.82C3470.61,1032.82 3476.19,1032.8 3484.19,1037.8L3484.2,1037.81L3482.2,1040.5C3482.2,1040.5 3489.08,1041.49 3493.36,1046.24L3493.4,1046.28L3493.45,1046.34L3493.46,1046.35L3491.29,1048.65C3491.29,1048.65 3495.22,1049.25 3497.78,1051.86L3497.78,1051.86L3496.33,1053.08C3496.33,1053.08 3498.09,1054.04 3499.96,1055.31C3501.95,1058.75 3502.67,1061 3502.67,1061C3502.67,1061 3501.3,1062.38 3498.56,1064.27C3497.05,1064.6 3494.82,1064.85 3494.82,1064.85L3495.2,1066.39L3495.2,1066.39C3490.88,1067.96 3485.89,1067.16 3485.89,1067.16L3487.16,1070.2L3487.16,1070.2C3479.8,1072.53 3471.68,1070.7 3471.68,1070.7L3471.96,1073.97L3471.96,1073.97C3464.69,1074.31 3458.4,1070.49 3458.4,1070.49L3458.32,1074.49L3458.32,1074.49C3452.52,1074.07 3444.6,1069.06 3444.6,1069.06L3444.51,1073.35L3444.51,1073.35C3436.24,1072.15 3432.11,1067.13 3432.11,1067.13L3431.76,1071.15L3431.75,1071.15C3422.69,1069.09 3417.02,1062.35 3417.02,1062.35L3416.46,1066.5L3416.45,1066.5C3407.71,1062.59 3404,1055.01 3404,1055.01L3402.53,1058.15C3391.21,1048.85 3387.27,1037.75 3386.27,1034.3C3386.13,1033.74 3386.06,1033.35 3386.03,1033.18C3386.8,1032.25 3399.3,1017.67 3422.76,1017.13Z" style="fill:rgb(0,122,0);"/>
            </g>
            <g transform="matrix(0.995162,-0.0982449,0.0982449,0.995162,-1181.18,507.41)">
                <path d="M3387.46,1035.74C3387.46,1035.74 3391.09,1033.15 3395.39,1030.04C3397.1,1028.8 3398.92,1027.49 3400.64,1026.2C3405.28,1022.75 3409.29,1019.63 3409.29,1019.63C3409.29,1019.63 3404.97,1022.31 3400.12,1025.46C3398.32,1026.63 3396.46,1027.88 3394.7,1029.06C3390.29,1032 3386.6,1034.51 3386.6,1034.51L3387.46,1035.74Z" style="fill:rgb(0,112,0);"/>
            </g>
            <g transform="matrix(0.995162,-0.0982449,0.0982449,0.995162,-1181.18,507.41)">
                <path d="M3386.28,1035.12C3386.28,1035.12 3386.32,1038.16 3386.41,1041.77C3386.45,1043.2 3386.48,1044.73 3386.54,1046.19C3386.72,1050.12 3386.97,1053.57 3386.97,1053.57C3386.97,1053.57 3387.25,1050.13 3387.45,1046.19C3387.52,1044.73 3387.57,1043.21 3387.61,1041.77C3387.72,1038.16 3387.78,1035.13 3387.78,1035.13L3386.28,1035.12Z" style="fill:rgb(0,112,0);"/>
            </g>
            <g transform="matrix(0.995162,-0.0982449,0.0982449,0.995162,-1181.18,507.41)">
                <path d="M3402.11,1040.69C3402.11,1040.69 3405.94,1037.54 3410.47,1033.77C3412.27,1032.26 3414.19,1030.67 3416.01,1029.11C3420.88,1024.95 3425.11,1021.2 3425.11,1021.2C3425.11,1021.2 3420.54,1024.53 3415.43,1028.41C3413.53,1029.85 3411.57,1031.39 3409.71,1032.83C3405.06,1036.45 3401.17,1039.52 3401.17,1039.52L3402.11,1040.69Z" style="fill:rgb(0,112,0);"/>
            </g>
            <g transform="matrix(0.995162,-0.0982449,0.0982449,0.995162,-1181.18,507.41)">
                <path d="M3400.9,1040.03C3400.9,1040.03 3400.56,1043.94 3400.2,1048.58C3400.06,1050.43 3399.9,1052.4 3399.79,1054.29C3399.47,1059.35 3399.3,1063.81 3399.3,1063.81C3399.3,1063.81 3400.01,1059.4 3400.69,1054.38C3400.95,1052.5 3401.18,1050.54 3401.4,1048.7C3401.95,1044.08 3402.39,1040.18 3402.39,1040.18L3400.9,1040.03Z" style="fill:rgb(0,112,0);"/>
            </g>
            <g transform="matrix(0.995162,-0.0982449,0.0982449,0.995162,-1181.18,507.41)">
                <path d="M3416.76,1045.61C3416.76,1045.61 3420.06,1042.22 3423.96,1038.17C3425.51,1036.56 3427.16,1034.84 3428.72,1033.18C3432.91,1028.71 3436.52,1024.71 3436.52,1024.71C3436.52,1024.71 3432.53,1028.33 3428.08,1032.54C3426.42,1034.11 3424.72,1035.77 3423.11,1037.32C3419.07,1041.24 3415.7,1044.55 3415.7,1044.55L3416.76,1045.61Z" style="fill:rgb(0,112,0);"/>
            </g>
            <g transform="matrix(0.995162,-0.0982449,0.0982449,0.995162,-1181.18,507.41)">
                <path d="M3415.48,1045.04C3415.48,1045.04 3415.3,1049.3 3415.13,1054.36C3415.07,1056.38 3414.99,1058.52 3414.95,1060.58C3414.84,1066.09 3414.85,1070.95 3414.85,1070.95C3414.85,1070.95 3415.38,1066.12 3415.85,1060.62C3416.03,1058.58 3416.18,1056.44 3416.33,1054.42C3416.7,1049.37 3416.98,1045.12 3416.98,1045.12L3415.48,1045.04Z" style="fill:rgb(0,112,0);"/>
            </g>
            <g transform="matrix(0.995162,-0.0982449,0.0982449,0.995162,-1181.18,507.41)">
                <path d="M3429.74,1050.03C3429.74,1050.03 3432.72,1046.93 3436.23,1043.21C3437.64,1041.73 3439.13,1040.16 3440.53,1038.63C3444.31,1034.54 3447.55,1030.86 3447.55,1030.86C3447.55,1030.86 3443.92,1034.16 3439.89,1038C3438.38,1039.43 3436.84,1040.94 3435.38,1042.37C3431.72,1045.95 3428.67,1048.98 3428.67,1048.98L3429.74,1050.03Z" style="fill:rgb(0,112,0);"/>
            </g>
            <g transform="matrix(0.995162,-0.0982449,0.0982449,0.995162,-1181.18,507.41)">
                <path d="M3428.46,1049.4C3428.46,1049.4 3427.95,1053.26 3427.39,1057.86C3427.16,1059.69 3426.92,1061.64 3426.72,1063.51C3426.18,1068.53 3425.81,1072.96 3425.81,1072.96C3425.81,1072.96 3426.71,1068.61 3427.62,1063.64C3427.95,1061.79 3428.27,1059.85 3428.57,1058.03C3429.34,1053.46 3429.94,1049.61 3429.94,1049.61L3428.46,1049.4Z" style="fill:rgb(0,112,0);"/>
            </g>
            <g transform="matrix(0.995162,-0.0982449,0.0982449,0.995162,-1181.18,507.41)">
                <path d="M3441.88,1054.17C3441.88,1054.17 3444.66,1051.31 3447.94,1047.88C3449.24,1046.51 3450.64,1045.06 3451.95,1043.65C3455.46,1039.86 3458.48,1036.46 3458.48,1036.46C3458.48,1036.46 3455.08,1039.48 3451.3,1043.01C3449.89,1044.32 3448.45,1045.72 3447.09,1047.03C3443.67,1050.32 3440.81,1053.11 3440.81,1053.11L3441.88,1054.17Z" style="fill:rgb(0,112,0);"/>
            </g>
            <g transform="matrix(0.995162,-0.0982449,0.0982449,0.995162,-1181.18,507.41)">
                <path d="M3440.59,1053.6C3440.59,1053.6 3440.44,1057.52 3440.3,1062.18C3440.24,1064.04 3440.18,1066.01 3440.15,1067.9C3440.07,1072.98 3440.11,1077.45 3440.11,1077.45C3440.11,1077.45 3440.61,1073.01 3441.05,1067.95C3441.22,1066.07 3441.36,1064.1 3441.5,1062.25C3441.84,1057.59 3442.09,1053.68 3442.09,1053.68L3440.59,1053.6Z" style="fill:rgb(0,112,0);"/>
            </g>
            <g transform="matrix(0.995162,-0.0982449,0.0982449,0.995162,-1181.18,507.41)">
                <path d="M3454.6,1058.54C3454.6,1058.54 3456.76,1056.49 3459.3,1054.02C3460.31,1053.04 3461.39,1052 3462.4,1050.97C3465.11,1048.23 3467.42,1045.74 3467.42,1045.74C3467.42,1045.74 3464.75,1047.83 3461.78,1050.31C3460.68,1051.22 3459.55,1052.21 3458.48,1053.14C3455.81,1055.46 3453.58,1057.44 3453.58,1057.44L3454.6,1058.54Z" style="fill:rgb(0,112,0);"/>
            </g>
            <g transform="matrix(0.995162,-0.0982449,0.0982449,0.995162,-1181.18,507.41)">
                <path d="M3453.34,1057.95C3453.34,1057.95 3453.23,1061.37 3453.14,1065.43C3453.1,1067.05 3453.05,1068.77 3453.04,1070.41C3453.02,1074.84 3453.1,1078.74 3453.1,1078.74C3453.1,1078.74 3453.56,1074.87 3453.95,1070.46C3454.1,1068.82 3454.22,1067.1 3454.33,1065.49C3454.63,1061.43 3454.84,1058.02 3454.84,1058.02L3453.34,1057.95Z" style="fill:rgb(0,112,0);"/>
            </g>
            <g transform="matrix(0.995162,-0.0982449,0.0982449,0.995162,-1181.18,507.41)">
                <path d="M3467.87,1063.1C3467.87,1063.1 3469.61,1061.59 3471.65,1059.77C3472.46,1059.04 3473.33,1058.27 3474.14,1057.51C3476.32,1055.45 3478.15,1053.58 3478.15,1053.58C3478.15,1053.58 3475.97,1055.04 3473.56,1056.81C3472.66,1057.46 3471.74,1058.18 3470.88,1058.84C3468.71,1060.52 3466.91,1061.95 3466.91,1061.95L3467.87,1063.1Z" style="fill:rgb(0,112,0);"/>
            </g>
            <g transform="matrix(0.995162,-0.0982449,0.0982449,0.995162,-1181.18,507.41)">
                <path d="M3466.64,1062.55C3466.64,1062.55 3466.76,1064.91 3466.95,1067.71C3467.03,1068.83 3467.11,1070.02 3467.21,1071.15C3467.49,1074.21 3467.85,1076.88 3467.85,1076.88C3467.85,1076.88 3468.03,1074.19 3468.12,1071.12C3468.15,1069.98 3468.15,1068.79 3468.15,1067.67C3468.16,1064.86 3468.14,1062.5 3468.14,1062.5L3466.64,1062.55Z" style="fill:rgb(0,112,0);"/>
            </g>
            <g transform="matrix(0.995162,-0.0982449,0.0982449,0.995162,-1181.18,507.41)">
                <path d="M3368.97,1030.16L3374.27,1031.89C3374.27,1031.89 3378.18,1033.14 3384.52,1035.25C3400.96,1040.73 3433.79,1051.94 3458.07,1060.1C3465.14,1062.48 3471.46,1064.67 3476.48,1066.26C3478.66,1066.95 3480.6,1067.5 3482.22,1067.97C3485.88,1069.03 3488,1069.6 3488,1069.6C3488,1069.6 3485.98,1068.76 3482.43,1067.36C3480.86,1066.74 3478.99,1065.99 3476.84,1065.2C3471.9,1063.39 3465.56,1061.26 3458.51,1058.82C3434.31,1050.43 3401.47,1039.22 3385.12,1033.5C3378.81,1031.3 3374.95,1029.9 3374.95,1029.9C3374.95,1029.9 3369.69,1028.03 3369.69,1028.03L3368.97,1030.16Z" style="fill:rgb(0,102,0);"/>
            </g>
            <g transform="matrix(1.26096,-0.114128,0.214112,0.956811,-2205.92,529.346)">
                <path d="M3422.76,1017.13L3420.85,1020.31C3420.85,1020.31 3428.45,1017.26 3435.03,1018.08C3435.55,1018.17 3436.07,1018.26 3436.59,1018.36L3435.65,1021.75C3435.65,1021.75 3441.26,1019.85 3447.74,1021.03L3447.74,1021.03C3447.28,1021.78 3446.62,1025.06 3446.62,1025.06C3446.62,1025.06 3455.99,1023.12 3460.85,1025.45L3460.1,1028.73C3460.1,1028.73 3464.8,1028.47 3471.66,1030.17L3471.66,1030.17L3470.61,1032.82C3470.61,1032.82 3476.19,1032.8 3484.19,1037.8L3484.2,1037.81L3482.2,1040.5C3482.2,1040.5 3489.08,1041.49 3493.36,1046.24L3493.4,1046.28L3493.45,1046.34L3493.46,1046.35L3491.29,1048.65C3491.29,1048.65 3495.22,1049.25 3497.78,1051.86L3497.78,1051.86L3496.33,1053.08C3496.33,1053.08 3498.09,1054.04 3499.96,1055.31C3501.95,1058.75 3502.67,1061 3502.67,1061C3502.67,1061 3501.3,1062.38 3498.56,1064.27C3497.05,1064.6 3494.82,1064.85 3494.82,1064.85L3495.2,1066.39L3495.2,1066.39C3490.88,1067.96 3485.89,1067.16 3485.89,1067.16L3487.16,1070.2L3487.16,1070.2C3479.8,1072.53 3471.68,1070.7 3471.68,1070.7L3471.96,1073.97L3471.96,1073.97C3464.69,1074.31 3458.4,1070.49 3458.4,1070.49L3458.32,1074.49L3458.32,1074.49C3452.52,1074.07 3444.6,1069.06 3444.6,1069.06L3444.51,1073.35L3444.51,1073.35C3436.24,1072.15 3432.11,1067.13 3432.11,1067.13L3431.76,1071.15L3431.75,1071.15C3422.69,1069.09 3417.02,1062.35 3417.02,1062.35L3416.46,1066.5L3416.45,1066.5C3407.71,1062.59 3404,1055.01 3404,1055.01L3402.53,1058.15C3391.21,1048.85 3387.27,1037.75 3386.27,1034.3C3386.13,1033.74 3386.06,1033.35 3386.03,1033.18C3386.8,1032.25 3399.3,1017.67 3422.76,1017.13Z" style="fill:rgb(0,122,0);"/>
            </g>
            <g transform="matrix(1.23382,-0.207578,0.336959,0.940969,-2226.02,862.335)">
                <path d="M3387.25,1035.78C3387.25,1035.78 3390.89,1033.18 3395.22,1030.07C3396.94,1028.83 3398.77,1027.51 3400.52,1026.23C3405.2,1022.77 3409.29,1019.63 3409.29,1019.63C3409.29,1019.63 3405.04,1022.3 3400.25,1025.43C3398.47,1026.6 3396.61,1027.86 3394.87,1029.03C3390.49,1031.97 3386.81,1034.47 3386.81,1034.47L3387.25,1035.78Z" style="fill:rgb(0,112,0);"/>
            </g>
            <g transform="matrix(1.23382,-0.207578,0.336959,0.940969,-2226.02,862.335)">
                <path d="M3386.42,1035.26C3386.42,1035.26 3386.45,1038.28 3386.52,1041.87C3386.55,1043.3 3386.58,1044.82 3386.63,1046.27C3386.77,1050.17 3386.97,1053.57 3386.97,1053.57C3386.97,1053.57 3387.2,1050.08 3387.37,1046.11C3387.43,1044.64 3387.46,1043.11 3387.5,1041.66C3387.59,1038.04 3387.64,1034.99 3387.64,1034.99L3386.42,1035.26Z" style="fill:rgb(0,112,0);"/>
            </g>
            <g transform="matrix(1.23382,-0.207578,0.336959,0.940969,-2226.02,862.335)">
                <path d="M3401.91,1040.73C3401.91,1040.73 3405.75,1037.58 3410.3,1033.8C3412.11,1032.29 3414.04,1030.69 3415.88,1029.14C3420.81,1024.96 3425.11,1021.2 3425.11,1021.2C3425.11,1021.2 3420.62,1024.51 3415.56,1028.38C3413.68,1029.83 3411.72,1031.36 3409.88,1032.8C3405.26,1036.42 3401.38,1039.49 3401.38,1039.49L3401.91,1040.73Z" style="fill:rgb(0,112,0);"/>
            </g>
            <g transform="matrix(1.23382,-0.207578,0.336959,0.940969,-2226.02,862.335)">
                <path d="M3401.04,1040.15C3401.04,1040.15 3400.7,1044.04 3400.32,1048.67C3400.17,1050.52 3400,1052.48 3399.87,1054.36C3399.52,1059.39 3399.3,1063.81 3399.3,1063.81C3399.3,1063.81 3399.96,1059.36 3400.61,1054.31C3400.85,1052.42 3401.07,1050.46 3401.28,1048.61C3401.82,1043.97 3402.25,1040.07 3402.25,1040.07L3401.04,1040.15Z" style="fill:rgb(0,112,0);"/>
            </g>
            <g transform="matrix(1.23382,-0.207578,0.336959,0.940969,-2226.02,862.335)">
                <path d="M3416.56,1045.64C3416.56,1045.64 3419.87,1042.25 3423.79,1038.2C3425.36,1036.58 3427.02,1034.87 3428.6,1033.2C3432.84,1028.73 3436.52,1024.71 3436.52,1024.71C3436.52,1024.71 3432.6,1028.32 3428.2,1032.52C3426.57,1034.08 3424.87,1035.74 3423.27,1037.3C3419.26,1041.21 3415.9,1044.52 3415.9,1044.52L3416.56,1045.64Z" style="fill:rgb(0,112,0);"/>
            </g>
            <g transform="matrix(1.23382,-0.207578,0.336959,0.940969,-2226.02,862.335)">
                <path d="M3415.62,1045.16C3415.62,1045.16 3415.43,1049.41 3415.25,1054.46C3415.17,1056.47 3415.09,1058.61 3415.03,1060.65C3414.89,1066.14 3414.85,1070.95 3414.85,1070.95C3414.85,1070.95 3415.33,1066.08 3415.77,1060.55C3415.93,1058.49 3416.08,1056.35 3416.22,1054.33C3416.57,1049.26 3416.84,1045 3416.84,1045L3415.62,1045.16Z" style="fill:rgb(0,112,0);"/>
            </g>
            <g transform="matrix(1.23382,-0.207578,0.336959,0.940969,-2226.02,862.335)">
                <path d="M3429.53,1050.06C3429.53,1050.06 3432.53,1046.96 3436.07,1043.24C3437.48,1041.75 3438.99,1040.18 3440.41,1038.65C3444.23,1034.55 3447.55,1030.86 3447.55,1030.86C3447.55,1030.86 3444,1034.15 3440.01,1037.98C3438.53,1039.4 3436.99,1040.92 3435.54,1042.35C3431.91,1045.92 3428.87,1048.95 3428.87,1048.95L3429.53,1050.06Z" style="fill:rgb(0,112,0);"/>
            </g>
            <g transform="matrix(1.23382,-0.207578,0.336959,0.940969,-2226.02,862.335)">
                <path d="M3428.6,1049.5C3428.6,1049.5 3428.09,1053.36 3427.5,1057.94C3427.27,1059.77 3427.02,1061.71 3426.8,1063.57C3426.23,1068.57 3425.81,1072.96 3425.81,1072.96C3425.81,1072.96 3426.66,1068.57 3427.53,1063.58C3427.85,1061.72 3428.16,1059.78 3428.46,1057.95C3429.2,1053.36 3429.8,1049.51 3429.8,1049.51L3428.6,1049.5Z" style="fill:rgb(0,112,0);"/>
            </g>
            <g transform="matrix(1.23382,-0.207578,0.336959,0.940969,-2226.02,862.335)">
                <path d="M3441.67,1054.2C3441.67,1054.2 3444.47,1051.34 3447.77,1047.9C3449.09,1046.54 3450.49,1045.09 3451.82,1043.67C3455.39,1039.87 3458.48,1036.46 3458.48,1036.46C3458.48,1036.46 3455.15,1039.47 3451.43,1042.99C3450.04,1044.3 3448.6,1045.7 3447.25,1047.01C3443.86,1050.29 3441.02,1053.08 3441.02,1053.08L3441.67,1054.2Z" style="fill:rgb(0,112,0);"/>
            </g>
            <g transform="matrix(1.23382,-0.207578,0.336959,0.940969,-2226.02,862.335)">
                <path d="M3440.74,1053.73C3440.74,1053.73 3440.57,1057.64 3440.41,1062.28C3440.35,1064.13 3440.27,1066.1 3440.23,1067.98C3440.12,1073.03 3440.11,1077.45 3440.11,1077.45C3440.11,1077.45 3440.56,1072.97 3440.97,1067.88C3441.12,1065.98 3441.26,1064.01 3441.38,1062.15C3441.71,1057.48 3441.95,1053.56 3441.95,1053.56L3440.74,1053.73Z" style="fill:rgb(0,112,0);"/>
            </g>
            <g transform="matrix(1.23382,-0.207578,0.336959,0.940969,-2226.02,862.335)">
                <path d="M3454.39,1058.58C3454.39,1058.58 3456.56,1056.52 3459.13,1054.05C3460.15,1053.06 3461.24,1052.02 3462.27,1051C3465.04,1048.24 3467.42,1045.74 3467.42,1045.74C3467.42,1045.74 3464.82,1047.82 3461.91,1050.28C3460.82,1051.2 3459.7,1052.19 3458.65,1053.11C3456,1055.43 3453.79,1057.4 3453.79,1057.4L3454.39,1058.58Z" style="fill:rgb(0,112,0);"/>
            </g>
            <g transform="matrix(1.23382,-0.207578,0.336959,0.940969,-2226.02,862.335)">
                <path d="M3453.48,1058.08C3453.48,1058.08 3453.36,1061.48 3453.25,1065.53C3453.2,1067.14 3453.15,1068.85 3453.13,1070.49C3453.07,1074.89 3453.1,1078.74 3453.1,1078.74C3453.1,1078.74 3453.51,1074.82 3453.87,1070.38C3454,1068.73 3454.11,1067.01 3454.22,1065.39C3454.49,1061.32 3454.7,1057.9 3454.7,1057.9L3453.48,1058.08Z" style="fill:rgb(0,112,0);"/>
            </g>
            <g transform="matrix(1.23382,-0.207578,0.336959,0.940969,-2226.02,862.335)">
                <path d="M3467.66,1063.14C3467.66,1063.14 3469.41,1061.62 3471.48,1059.79C3472.3,1059.06 3473.18,1058.3 3474.01,1057.53C3476.24,1055.47 3478.15,1053.58 3478.15,1053.58C3478.15,1053.58 3476.05,1055.03 3473.68,1056.79C3472.8,1057.44 3471.9,1058.15 3471.05,1058.81C3468.91,1060.48 3467.12,1061.91 3467.12,1061.91L3467.66,1063.14Z" style="fill:rgb(0,112,0);"/>
            </g>
            <g transform="matrix(1.23382,-0.207578,0.336959,0.940969,-2226.02,862.335)">
                <path d="M3466.78,1062.69C3466.78,1062.69 3466.9,1065.04 3467.07,1067.82C3467.14,1068.93 3467.2,1070.11 3467.3,1071.24C3467.55,1074.26 3467.85,1076.88 3467.85,1076.88C3467.85,1076.88 3467.98,1074.14 3468.03,1071.04C3468.05,1069.88 3468.04,1068.69 3468.04,1067.56C3468.03,1064.73 3468,1062.36 3468,1062.36L3466.78,1062.69Z" style="fill:rgb(0,112,0);"/>
            </g>
            <g transform="matrix(1.23382,-0.207578,0.336959,0.940969,-2226.02,862.335)">
                <path d="M3368.95,1030.2L3374.26,1031.93C3374.26,1031.93 3378.16,1033.18 3384.51,1035.29C3400.95,1040.76 3433.78,1051.97 3458.06,1060.13C3465.13,1062.5 3471.45,1064.7 3476.47,1066.28C3478.65,1066.97 3480.59,1067.52 3482.22,1067.99C3485.88,1069.04 3488,1069.6 3488,1069.6C3488,1069.6 3485.98,1068.75 3482.44,1067.35C3480.86,1066.72 3478.99,1065.97 3476.85,1065.18C3471.91,1063.36 3465.57,1061.24 3458.52,1058.79C3434.32,1050.4 3401.48,1039.19 3385.13,1033.47C3378.82,1031.26 3374.97,1029.86 3374.97,1029.86C3374.97,1029.86 3369.71,1027.98 3369.71,1027.98L3368.95,1030.2Z" style="fill:rgb(0,102,0);"/>
            </g>
            <g transform="matrix(1.32659,-0.180089,0.26724,1.01899,-2469.94,612.983)">
                <path d="M3422.76,1017.13L3420.85,1020.31C3420.85,1020.31 3428.45,1017.26 3435.03,1018.08C3435.55,1018.17 3436.07,1018.26 3436.59,1018.36L3435.65,1021.75C3435.65,1021.75 3441.26,1019.85 3447.74,1021.03L3447.74,1021.03C3447.28,1021.78 3446.62,1025.06 3446.62,1025.06C3446.62,1025.06 3455.99,1023.12 3460.85,1025.45L3460.1,1028.73C3460.1,1028.73 3464.8,1028.47 3471.66,1030.17L3471.66,1030.17L3470.61,1032.82C3470.61,1032.82 3476.19,1032.8 3484.19,1037.8L3484.2,1037.81L3482.2,1040.5C3482.2,1040.5 3489.08,1041.49 3493.36,1046.24L3493.4,1046.28L3493.45,1046.34L3493.46,1046.35L3491.29,1048.65C3491.29,1048.65 3495.22,1049.25 3497.78,1051.86L3497.78,1051.86L3496.33,1053.08C3496.33,1053.08 3498.09,1054.04 3499.96,1055.31C3501.95,1058.75 3502.67,1061 3502.67,1061C3502.67,1061 3501.3,1062.38 3498.56,1064.27C3497.05,1064.6 3494.82,1064.85 3494.82,1064.85L3495.2,1066.39L3495.2,1066.39C3490.88,1067.96 3485.89,1067.16 3485.89,1067.16L3487.16,1070.2L3487.16,1070.2C3479.8,1072.53 3471.68,1070.7 3471.68,1070.7L3471.96,1073.97L3471.96,1073.97C3464.69,1074.31 3458.4,1070.49 3458.4,1070.49L3458.32,1074.49L3458.32,1074.49C3452.52,1074.07 3444.6,1069.06 3444.6,1069.06L3444.51,1073.35L3444.51,1073.35C3436.24,1072.15 3432.11,1067.13 3432.11,1067.13L3431.76,1071.15L3431.75,1071.15C3422.69,1069.09 3417.02,1062.35 3417.02,1062.35L3416.46,1066.5L3416.45,1066.5C3407.71,1062.59 3404,1055.01 3404,1055.01L3402.53,1058.15C3391.21,1048.85 3387.27,1037.75 3386.27,1034.3C3386.13,1033.74 3386.06,1033.35 3386.03,1033.18C3386.8,1032.25 3399.3,1017.67 3422.76,1017.13Z" style="fill:rgb(0,122,0);"/>
            </g>
            <g transform="matrix(1.29391,-0.279329,0.396277,0.996371,-2476.84,971.919)">
                <path d="M3387.24,1035.73C3387.24,1035.73 3390.89,1033.14 3395.22,1030.03C3396.94,1028.79 3398.77,1027.48 3400.51,1026.2C3405.2,1022.75 3409.29,1019.63 3409.29,1019.63C3409.29,1019.63 3405.04,1022.32 3400.25,1025.46C3398.47,1026.64 3396.62,1027.89 3394.87,1029.07C3390.49,1032.01 3386.82,1034.52 3386.82,1034.52L3387.24,1035.73Z" style="fill:rgb(0,112,0);"/>
            </g>
            <g transform="matrix(1.29391,-0.279329,0.396277,0.996371,-2476.84,971.919)">
                <path d="M3386.45,1035.24C3386.45,1035.24 3386.49,1038.27 3386.55,1041.86C3386.58,1043.29 3386.6,1044.81 3386.65,1046.26C3386.78,1050.17 3386.97,1053.57 3386.97,1053.57C3386.97,1053.57 3387.19,1050.08 3387.34,1046.12C3387.4,1044.65 3387.43,1043.12 3387.47,1041.67C3387.56,1038.05 3387.61,1035.01 3387.61,1035.01L3386.45,1035.24Z" style="fill:rgb(0,112,0);"/>
            </g>
            <g transform="matrix(1.29391,-0.279329,0.396277,0.996371,-2476.84,971.919)">
                <path d="M3401.9,1040.68C3401.9,1040.68 3405.74,1037.53 3410.29,1033.76C3412.11,1032.26 3414.04,1030.66 3415.88,1029.11C3420.8,1024.94 3425.11,1021.2 3425.11,1021.2C3425.11,1021.2 3420.62,1024.53 3415.57,1028.41C3413.68,1029.86 3411.73,1031.4 3409.89,1032.84C3405.26,1036.46 3401.39,1039.53 3401.39,1039.53L3401.9,1040.68Z" style="fill:rgb(0,112,0);"/>
            </g>
            <g transform="matrix(1.29391,-0.279329,0.396277,0.996371,-2476.84,971.919)">
                <path d="M3401.07,1040.14C3401.07,1040.14 3400.73,1044.04 3400.35,1048.67C3400.19,1050.51 3400.03,1052.47 3399.89,1054.35C3399.54,1059.39 3399.3,1063.81 3399.3,1063.81C3399.3,1063.81 3399.95,1059.37 3400.59,1054.31C3400.82,1052.43 3401.04,1050.46 3401.26,1048.62C3401.79,1043.98 3402.21,1040.08 3402.21,1040.08L3401.07,1040.14Z" style="fill:rgb(0,112,0);"/>
            </g>
            <g transform="matrix(1.29391,-0.279329,0.396277,0.996371,-2476.84,971.919)">
                <path d="M3416.55,1045.6C3416.55,1045.6 3419.86,1042.22 3423.79,1038.16C3425.35,1036.55 3427.01,1034.84 3428.59,1033.17C3432.83,1028.71 3436.52,1024.71 3436.52,1024.71C3436.52,1024.71 3432.61,1028.34 3428.21,1032.54C3426.57,1034.11 3424.88,1035.77 3423.28,1037.33C3419.27,1041.25 3415.91,1044.56 3415.91,1044.56L3416.55,1045.6Z" style="fill:rgb(0,112,0);"/>
            </g>
            <g transform="matrix(1.29391,-0.279329,0.396277,0.996371,-2476.84,971.919)">
                <path d="M3415.66,1045.15C3415.66,1045.15 3415.47,1049.4 3415.27,1054.45C3415.2,1056.46 3415.11,1058.6 3415.05,1060.64C3414.9,1066.13 3414.85,1070.95 3414.85,1070.95C3414.85,1070.95 3415.31,1066.08 3415.75,1060.56C3415.91,1058.5 3416.05,1056.36 3416.19,1054.34C3416.54,1049.27 3416.8,1045.01 3416.8,1045.01L3415.66,1045.15Z" style="fill:rgb(0,112,0);"/>
            </g>
            <g transform="matrix(1.29391,-0.279329,0.396277,0.996371,-2476.84,971.919)">
                <path d="M3429.52,1050.02C3429.52,1050.02 3432.52,1046.92 3436.06,1043.2C3437.47,1041.72 3438.98,1040.15 3440.4,1038.63C3444.23,1034.53 3447.55,1030.86 3447.55,1030.86C3447.55,1030.86 3444,1034.16 3440.02,1038C3438.53,1039.43 3437,1040.95 3435.55,1042.38C3431.92,1045.95 3428.88,1048.99 3428.88,1048.99L3429.52,1050.02Z" style="fill:rgb(0,112,0);"/>
            </g>
            <g transform="matrix(1.29391,-0.279329,0.396277,0.996371,-2476.84,971.919)">
                <path d="M3428.64,1049.49C3428.64,1049.49 3428.12,1053.35 3427.53,1057.94C3427.29,1059.77 3427.04,1061.71 3426.82,1063.57C3426.24,1068.57 3425.81,1072.96 3425.81,1072.96C3425.81,1072.96 3426.64,1068.57 3427.51,1063.58C3427.83,1061.72 3428.14,1059.78 3428.43,1057.95C3429.17,1053.37 3429.77,1049.51 3429.77,1049.51L3428.64,1049.49Z" style="fill:rgb(0,112,0);"/>
            </g>
            <g transform="matrix(1.29391,-0.279329,0.396277,0.996371,-2476.84,971.919)">
                <path d="M3441.66,1054.16C3441.66,1054.16 3444.45,1051.3 3447.76,1047.87C3449.08,1046.51 3450.49,1045.06 3451.81,1043.65C3455.38,1039.86 3458.48,1036.46 3458.48,1036.46C3458.48,1036.46 3455.16,1039.49 3451.43,1043.02C3450.04,1044.33 3448.61,1045.73 3447.26,1047.04C3443.87,1050.33 3441.03,1053.12 3441.03,1053.12L3441.66,1054.16Z" style="fill:rgb(0,112,0);"/>
            </g>
            <g transform="matrix(1.29391,-0.279329,0.396277,0.996371,-2476.84,971.919)">
                <path d="M3440.77,1053.71C3440.77,1053.71 3440.61,1057.63 3440.44,1062.27C3440.37,1064.12 3440.3,1066.09 3440.25,1067.97C3440.13,1073.02 3440.11,1077.45 3440.11,1077.45C3440.11,1077.45 3440.54,1072.97 3440.95,1067.88C3441.1,1065.99 3441.23,1064.02 3441.36,1062.16C3441.67,1057.49 3441.92,1053.57 3441.92,1053.57L3440.77,1053.71Z" style="fill:rgb(0,112,0);"/>
            </g>
            <g transform="matrix(1.29391,-0.279329,0.396277,0.996371,-2476.84,971.919)">
                <path d="M3454.38,1058.53C3454.38,1058.53 3456.55,1056.48 3459.12,1054.01C3460.15,1053.03 3461.24,1051.99 3462.27,1050.97C3465.03,1048.22 3467.42,1045.74 3467.42,1045.74C3467.42,1045.74 3464.83,1047.84 3461.91,1050.31C3460.83,1051.23 3459.71,1052.22 3458.66,1053.14C3456.01,1055.47 3453.8,1057.44 3453.8,1057.44L3454.38,1058.53Z" style="fill:rgb(0,112,0);"/>
            </g>
            <g transform="matrix(1.29391,-0.279329,0.396277,0.996371,-2476.84,971.919)">
                <path d="M3453.52,1058.07C3453.52,1058.07 3453.39,1061.47 3453.28,1065.52C3453.23,1067.13 3453.18,1068.84 3453.15,1070.48C3453.08,1074.88 3453.1,1078.74 3453.1,1078.74C3453.1,1078.74 3453.49,1074.83 3453.85,1070.39C3453.98,1068.74 3454.09,1067.02 3454.19,1065.4C3454.46,1061.33 3454.66,1057.91 3454.66,1057.91L3453.52,1058.07Z" style="fill:rgb(0,112,0);"/>
            </g>
            <g transform="matrix(1.29391,-0.279329,0.396277,0.996371,-2476.84,971.919)">
                <path d="M3467.65,1063.09C3467.65,1063.09 3469.4,1061.58 3471.47,1059.76C3472.3,1059.03 3473.18,1058.26 3474.01,1057.5C3476.24,1055.45 3478.15,1053.58 3478.15,1053.58C3478.15,1053.58 3476.05,1055.05 3473.69,1056.81C3472.81,1057.47 3471.91,1058.18 3471.05,1058.85C3468.91,1060.52 3467.13,1061.95 3467.13,1061.95L3467.65,1063.09Z" style="fill:rgb(0,112,0);"/>
            </g>
            <g transform="matrix(1.29391,-0.279329,0.396277,0.996371,-2476.84,971.919)">
                <path d="M3466.82,1062.67C3466.82,1062.67 3466.93,1065.02 3467.1,1067.81C3467.16,1068.92 3467.23,1070.1 3467.32,1071.22C3467.56,1074.25 3467.85,1076.88 3467.85,1076.88C3467.85,1076.88 3467.97,1074.15 3468.01,1071.05C3468.03,1069.9 3468.02,1068.7 3468.01,1067.58C3468,1064.75 3467.96,1062.38 3467.96,1062.38L3466.82,1062.67Z" style="fill:rgb(0,112,0);"/>
            </g>
            <g transform="matrix(1.29391,-0.279329,0.396277,0.996371,-2476.84,971.919)">
                <path d="M3368.98,1030.12L3374.28,1031.86C3374.28,1031.86 3378.19,1033.11 3384.53,1035.22C3400.97,1040.7 3433.8,1051.91 3458.08,1060.08C3465.15,1062.46 3471.46,1064.65 3476.49,1066.24C3478.66,1066.93 3480.6,1067.49 3482.23,1067.96C3485.88,1069.03 3488,1069.6 3488,1069.6C3488,1069.6 3485.97,1068.76 3482.43,1067.37C3480.85,1066.75 3478.98,1066.01 3476.84,1065.22C3471.89,1063.41 3465.55,1061.28 3458.51,1058.84C3434.3,1050.45 3401.46,1039.25 3385.11,1033.53C3378.8,1031.33 3374.94,1029.93 3374.94,1029.93C3374.94,1029.93 3369.68,1028.06 3369.68,1028.06L3368.98,1030.12Z" style="fill:rgb(0,102,0);"/>
            </g>
            <g transform="matrix(1.05688,-0.499928,0.499283,0.914704,-1778.74,1739.69)">
                <path d="M3422.76,1017.13L3420.85,1020.31C3420.85,1020.31 3428.45,1017.26 3435.03,1018.08C3435.55,1018.17 3436.07,1018.26 3436.59,1018.36L3435.65,1021.75C3435.65,1021.75 3441.26,1019.85 3447.74,1021.03L3447.74,1021.03C3447.28,1021.78 3446.62,1025.06 3446.62,1025.06C3446.62,1025.06 3455.99,1023.12 3460.85,1025.45L3460.1,1028.73C3460.1,1028.73 3464.8,1028.47 3471.66,1030.17L3471.66,1030.17L3470.61,1032.82C3470.61,1032.82 3476.19,1032.8 3484.19,1037.8L3484.2,1037.81L3482.2,1040.5C3482.2,1040.5 3489.08,1041.49 3493.36,1046.24L3493.4,1046.28L3493.45,1046.34L3493.46,1046.35L3491.29,1048.65C3491.29,1048.65 3495.22,1049.25 3497.78,1051.86L3497.78,1051.86L3496.33,1053.08C3496.33,1053.08 3498.09,1054.04 3499.96,1055.31C3501.95,1058.75 3502.67,1061 3502.67,1061C3502.67,1061 3501.3,1062.38 3498.56,1064.27C3497.05,1064.6 3494.82,1064.85 3494.82,1064.85L3495.2,1066.39L3495.2,1066.39C3490.88,1067.96 3485.89,1067.16 3485.89,1067.16L3487.16,1070.2L3487.16,1070.2C3479.8,1072.53 3471.68,1070.7 3471.68,1070.7L3471.96,1073.97L3471.96,1073.97C3464.69,1074.31 3458.4,1070.49 3458.4,1070.49L3458.32,1074.49L3458.32,1074.49C3452.52,1074.07 3444.6,1069.06 3444.6,1069.06L3444.51,1073.35L3444.51,1073.35C3436.24,1072.15 3432.11,1067.13 3432.11,1067.13L3431.76,1071.15L3431.75,1071.15C3422.69,1069.09 3417.02,1062.35 3417.02,1062.35L3416.46,1066.5L3416.45,1066.5C3407.71,1062.59 3404,1055.01 3404,1055.01L3402.53,1058.15C3391.21,1048.85 3387.27,1037.75 3386.27,1034.3C3386.13,1033.74 3386.06,1033.35 3386.03,1033.18C3386.8,1032.25 3399.3,1017.67 3422.76,1017.13Z" style="fill:rgb(0,122,0);"/>
            </g>
            <g transform="matrix(1.00271,-0.587374,0.6007,0.861163,-1687.09,2086.77)">
                <path d="M3387.34,1035.72C3387.34,1035.72 3390.98,1033.13 3395.29,1030.03C3397.01,1028.79 3398.84,1027.48 3400.57,1026.19C3405.23,1022.75 3409.29,1019.63 3409.29,1019.63C3409.29,1019.63 3405.01,1022.32 3400.2,1025.47C3398.4,1026.64 3396.54,1027.89 3394.79,1029.07C3390.4,1032.02 3386.72,1034.53 3386.72,1034.53L3387.34,1035.72Z" style="fill:rgb(0,112,0);"/>
            </g>
            <g transform="matrix(1.00271,-0.587374,0.6007,0.861163,-1687.09,2086.77)">
                <path d="M3386.38,1035.18C3386.38,1035.18 3386.42,1038.21 3386.49,1041.81C3386.52,1043.25 3386.55,1044.77 3386.6,1046.23C3386.75,1050.14 3386.97,1053.57 3386.97,1053.57C3386.97,1053.57 3387.22,1050.11 3387.39,1046.16C3387.45,1044.69 3387.49,1043.16 3387.53,1041.72C3387.62,1038.11 3387.68,1035.07 3387.68,1035.07L3386.38,1035.18Z" style="fill:rgb(0,112,0);"/>
            </g>
            <g transform="matrix(1.00271,-0.587374,0.6007,0.861163,-1687.09,2086.77)">
                <path d="M3402,1040.67C3402,1040.67 3405.83,1037.53 3410.37,1033.75C3412.18,1032.25 3414.11,1030.66 3415.93,1029.1C3420.84,1024.94 3425.11,1021.2 3425.11,1021.2C3425.11,1021.2 3420.59,1024.53 3415.51,1028.42C3413.61,1029.86 3411.65,1031.4 3409.81,1032.85C3405.17,1036.47 3401.29,1039.54 3401.29,1039.54L3402,1040.67Z" style="fill:rgb(0,112,0);"/>
            </g>
            <g transform="matrix(1.00271,-0.587374,0.6007,0.861163,-1687.09,2086.77)">
                <path d="M3401,1040.09C3401,1040.09 3400.66,1043.99 3400.29,1048.62C3400.14,1050.47 3399.98,1052.44 3399.85,1054.32C3399.51,1059.37 3399.3,1063.81 3399.3,1063.81C3399.3,1063.81 3399.97,1059.38 3400.63,1054.34C3400.87,1052.47 3401.1,1050.51 3401.32,1048.66C3401.86,1044.03 3402.29,1040.13 3402.29,1040.13L3401,1040.09Z" style="fill:rgb(0,112,0);"/>
            </g>
            <g transform="matrix(1.00271,-0.587374,0.6007,0.861163,-1687.09,2086.77)">
                <path d="M3416.64,1045.59C3416.64,1045.59 3419.95,1042.21 3423.86,1038.16C3425.42,1036.54 3427.08,1034.83 3428.65,1033.17C3432.87,1028.71 3436.52,1024.71 3436.52,1024.71C3436.52,1024.71 3432.57,1028.34 3428.15,1032.55C3426.51,1034.12 3424.81,1035.78 3423.2,1037.34C3419.18,1041.25 3415.82,1044.57 3415.82,1044.57L3416.64,1045.59Z" style="fill:rgb(0,112,0);"/>
            </g>
            <g transform="matrix(1.00271,-0.587374,0.6007,0.861163,-1687.09,2086.77)">
                <path d="M3415.58,1045.1C3415.58,1045.1 3415.4,1049.35 3415.22,1054.4C3415.14,1056.42 3415.06,1058.56 3415.01,1060.61C3414.87,1066.11 3414.85,1070.95 3414.85,1070.95C3414.85,1070.95 3415.34,1066.1 3415.79,1060.59C3415.96,1058.54 3416.11,1056.4 3416.25,1054.38C3416.61,1049.32 3416.88,1045.07 3416.88,1045.07L3415.58,1045.1Z" style="fill:rgb(0,112,0);"/>
            </g>
            <g transform="matrix(1.00271,-0.587374,0.6007,0.861163,-1687.09,2086.77)">
                <path d="M3429.62,1050.01C3429.62,1050.01 3432.61,1046.91 3436.14,1043.2C3437.55,1041.72 3439.05,1040.15 3440.46,1038.62C3444.26,1034.53 3447.55,1030.86 3447.55,1030.86C3447.55,1030.86 3443.97,1034.16 3439.96,1038.01C3438.46,1039.44 3436.93,1040.96 3435.47,1042.38C3431.83,1045.96 3428.78,1048.99 3428.78,1048.99L3429.62,1050.01Z" style="fill:rgb(0,112,0);"/>
            </g>
            <g transform="matrix(1.00271,-0.587374,0.6007,0.861163,-1687.09,2086.77)">
                <path d="M3428.56,1049.44C3428.56,1049.44 3428.05,1053.31 3427.47,1057.9C3427.24,1059.73 3426.99,1061.67 3426.78,1063.54C3426.21,1068.55 3425.81,1072.96 3425.81,1072.96C3425.81,1072.96 3426.67,1068.59 3427.55,1063.61C3427.88,1061.76 3428.19,1059.82 3428.49,1057.99C3429.24,1053.41 3429.84,1049.56 3429.84,1049.56L3428.56,1049.44Z" style="fill:rgb(0,112,0);"/>
            </g>
            <g transform="matrix(1.00271,-0.587374,0.6007,0.861163,-1687.09,2086.77)">
                <path d="M3441.76,1054.16C3441.76,1054.16 3444.55,1051.3 3447.84,1047.87C3449.16,1046.5 3450.55,1045.05 3451.87,1043.64C3455.42,1039.86 3458.48,1036.46 3458.48,1036.46C3458.48,1036.46 3455.12,1039.49 3451.37,1043.02C3449.98,1044.34 3448.54,1045.73 3447.18,1047.05C3443.78,1050.34 3440.93,1053.13 3440.93,1053.13L3441.76,1054.16Z" style="fill:rgb(0,112,0);"/>
            </g>
            <g transform="matrix(1.00271,-0.587374,0.6007,0.861163,-1687.09,2086.77)">
                <path d="M3440.7,1053.66C3440.7,1053.66 3440.54,1057.57 3440.38,1062.23C3440.32,1064.08 3440.25,1066.05 3440.21,1067.94C3440.11,1073 3440.11,1077.45 3440.11,1077.45C3440.11,1077.45 3440.57,1072.99 3440.99,1067.92C3441.15,1066.03 3441.28,1064.06 3441.41,1062.2C3441.74,1057.54 3441.99,1053.63 3441.99,1053.63L3440.7,1053.66Z" style="fill:rgb(0,112,0);"/>
            </g>
            <g transform="matrix(1.00271,-0.587374,0.6007,0.861163,-1687.09,2086.77)">
                <path d="M3454.48,1058.53C3454.48,1058.53 3456.65,1056.47 3459.2,1054.01C3460.22,1053.03 3461.3,1051.99 3462.33,1050.96C3465.07,1048.22 3467.42,1045.74 3467.42,1045.74C3467.42,1045.74 3464.79,1047.84 3461.85,1050.31C3460.76,1051.24 3459.64,1052.22 3458.58,1053.15C3455.92,1055.47 3453.7,1057.45 3453.7,1057.45L3454.48,1058.53Z" style="fill:rgb(0,112,0);"/>
            </g>
            <g transform="matrix(1.00271,-0.587374,0.6007,0.861163,-1687.09,2086.77)">
                <path d="M3453.44,1058.01C3453.44,1058.01 3453.33,1061.42 3453.22,1065.47C3453.18,1067.09 3453.12,1068.8 3453.11,1070.45C3453.06,1074.86 3453.1,1078.74 3453.1,1078.74C3453.1,1078.74 3453.52,1074.85 3453.89,1070.42C3454.03,1068.78 3454.14,1067.06 3454.25,1065.44C3454.53,1061.38 3454.74,1057.97 3454.74,1057.97L3453.44,1058.01Z" style="fill:rgb(0,112,0);"/>
            </g>
            <g transform="matrix(1.00271,-0.587374,0.6007,0.861163,-1687.09,2086.77)">
                <path d="M3467.75,1063.08C3467.75,1063.08 3469.5,1061.58 3471.55,1059.75C3472.37,1059.03 3473.25,1058.26 3474.07,1057.5C3476.27,1055.45 3478.15,1053.58 3478.15,1053.58C3478.15,1053.58 3476.01,1055.05 3473.63,1056.82C3472.74,1057.48 3471.83,1058.19 3470.97,1058.86C3468.82,1060.53 3467.03,1061.96 3467.03,1061.96L3467.75,1063.08Z" style="fill:rgb(0,112,0);"/>
            </g>
            <g transform="matrix(1.00271,-0.587374,0.6007,0.861163,-1687.09,2086.77)">
                <path d="M3466.74,1062.61C3466.74,1062.61 3466.86,1064.96 3467.04,1067.76C3467.11,1068.87 3467.18,1070.06 3467.27,1071.19C3467.53,1074.23 3467.85,1076.88 3467.85,1076.88C3467.85,1076.88 3467.99,1074.17 3468.06,1071.09C3468.08,1069.94 3468.07,1068.75 3468.07,1067.63C3468.07,1064.81 3468.04,1062.44 3468.04,1062.44L3466.74,1062.61Z" style="fill:rgb(0,112,0);"/>
            </g>
            <g transform="matrix(1.00271,-0.587374,0.6007,0.861163,-1687.09,2086.77)">
                <path d="M3368.98,1030.12L3374.28,1031.86C3374.28,1031.86 3378.19,1033.11 3384.53,1035.22C3400.97,1040.7 3433.8,1051.91 3458.08,1060.08C3465.15,1062.46 3471.47,1064.65 3476.49,1066.24C3478.66,1066.93 3480.6,1067.49 3482.23,1067.96C3485.88,1069.03 3488,1069.6 3488,1069.6C3488,1069.6 3485.97,1068.76 3482.43,1067.37C3480.85,1066.75 3478.98,1066.01 3476.84,1065.22C3471.89,1063.41 3465.55,1061.28 3458.5,1058.84C3434.3,1050.45 3401.46,1039.25 3385.11,1033.53C3378.8,1031.33 3374.94,1029.93 3374.94,1029.93C3374.94,1029.93 3369.68,1028.06 3369.68,1028.06L3368.98,1030.12Z" style="fill:rgb(0,102,0);"/>
            </g>
            <g transform="matrix(0.221552,-0.928919,0.951298,0.240616,591.503,3848.3)">
                <path d="M3422.76,1017.13L3420.85,1020.31C3420.85,1020.31 3428.45,1017.26 3435.03,1018.08C3435.55,1018.17 3436.07,1018.26 3436.59,1018.36L3435.65,1021.75C3435.65,1021.75 3441.26,1019.85 3447.74,1021.03L3447.74,1021.03C3447.28,1021.78 3446.62,1025.06 3446.62,1025.06C3446.62,1025.06 3455.99,1023.12 3460.85,1025.45L3460.1,1028.73C3460.1,1028.73 3464.8,1028.47 3471.66,1030.17L3471.66,1030.17L3470.61,1032.82C3470.61,1032.82 3476.19,1032.8 3484.19,1037.8L3484.2,1037.81L3482.2,1040.5C3482.2,1040.5 3489.08,1041.49 3493.36,1046.24L3493.4,1046.28L3493.45,1046.34L3493.46,1046.35L3491.29,1048.65C3491.29,1048.65 3495.22,1049.25 3497.78,1051.86L3497.78,1051.86L3496.33,1053.08C3496.33,1053.08 3498.09,1054.04 3499.96,1055.31C3501.95,1058.75 3502.67,1061 3502.67,1061C3502.67,1061 3501.3,1062.38 3498.56,1064.27C3497.05,1064.6 3494.82,1064.85 3494.82,1064.85L3495.2,1066.39L3495.2,1066.39C3490.88,1067.96 3485.89,1067.16 3485.89,1067.16L3487.16,1070.2L3487.16,1070.2C3479.8,1072.53 3471.68,1070.7 3471.68,1070.7L3471.96,1073.97L3471.96,1073.97C3464.69,1074.31 3458.4,1070.49 3458.4,1070.49L3458.32,1074.49L3458.32,1074.49C3452.52,1074.07 3444.6,1069.06 3444.6,1069.06L3444.51,1073.35L3444.51,1073.35C3436.24,1072.15 3432.11,1067.13 3432.11,1067.13L3431.76,1071.15L3431.75,1071.15C3422.69,1069.09 3417.02,1062.35 3417.02,1062.35L3416.46,1066.5L3416.45,1066.5C3407.71,1062.59 3404,1055.01 3404,1055.01L3402.53,1058.15C3391.21,1048.85 3387.27,1037.75 3386.27,1034.3C3386.13,1033.74 3386.06,1033.35 3386.03,1033.18C3386.8,1032.25 3399.3,1017.67 3422.76,1017.13Z" style="fill:rgb(0,122,0);"/>
            </g>
            <g transform="matrix(0.12702,-0.948064,0.968462,0.14819,897.935,3998.24)">
                <path d="M3387.49,1035.75C3387.49,1035.75 3391.12,1033.16 3395.41,1030.05C3397.12,1028.81 3398.94,1027.5 3400.66,1026.21C3405.29,1022.76 3409.29,1019.63 3409.29,1019.63C3409.29,1019.63 3404.95,1022.31 3400.1,1025.45C3398.3,1026.62 3396.43,1027.87 3394.67,1029.05C3390.26,1031.99 3386.57,1034.5 3386.57,1034.5L3387.49,1035.75Z" style="fill:rgb(0,112,0);"/>
            </g>
            <g transform="matrix(0.12702,-0.948064,0.968462,0.14819,897.935,3998.24)">
                <path d="M3386.25,1035.11C3386.25,1035.11 3386.29,1038.14 3386.38,1041.75C3386.42,1043.19 3386.45,1044.72 3386.52,1046.18C3386.7,1050.12 3386.97,1053.57 3386.97,1053.57C3386.97,1053.57 3387.27,1050.13 3387.47,1046.2C3387.55,1044.74 3387.59,1043.22 3387.64,1041.78C3387.75,1038.17 3387.82,1035.14 3387.82,1035.14L3386.25,1035.11Z" style="fill:rgb(0,112,0);"/>
            </g>
            <g transform="matrix(0.12702,-0.948064,0.968462,0.14819,897.935,3998.24)">
                <path d="M3402.15,1040.7C3402.15,1040.7 3405.97,1037.55 3410.49,1033.77C3412.3,1032.27 3414.21,1030.67 3416.03,1029.12C3420.89,1024.95 3425.11,1021.2 3425.11,1021.2C3425.11,1021.2 3420.53,1024.52 3415.41,1028.4C3413.51,1029.85 3411.54,1031.38 3409.68,1032.82C3405.03,1036.44 3401.14,1039.51 3401.14,1039.51L3402.15,1040.7Z" style="fill:rgb(0,112,0);"/>
            </g>
            <g transform="matrix(0.12702,-0.948064,0.968462,0.14819,897.935,3998.24)">
                <path d="M3400.86,1040.02C3400.86,1040.02 3400.53,1043.92 3400.18,1048.57C3400.04,1050.42 3399.88,1052.39 3399.77,1054.28C3399.46,1059.35 3399.3,1063.81 3399.3,1063.81C3399.3,1063.81 3400.02,1059.41 3400.71,1054.38C3400.97,1052.51 3401.2,1050.55 3401.43,1048.71C3401.99,1044.09 3402.42,1040.19 3402.42,1040.19L3400.86,1040.02Z" style="fill:rgb(0,112,0);"/>
            </g>
            <g transform="matrix(0.12702,-0.948064,0.968462,0.14819,897.935,3998.24)">
                <path d="M3416.8,1045.62C3416.8,1045.62 3420.1,1042.23 3423.99,1038.18C3425.54,1036.56 3427.19,1034.85 3428.75,1033.19C3432.93,1028.72 3436.52,1024.71 3436.52,1024.71C3436.52,1024.71 3432.52,1028.33 3428.06,1032.53C3426.4,1034.1 3424.69,1035.76 3423.08,1037.32C3419.04,1041.23 3415.66,1044.54 3415.66,1044.54L3416.8,1045.62Z" style="fill:rgb(0,112,0);"/>
            </g>
            <g transform="matrix(0.12702,-0.948064,0.968462,0.14819,897.935,3998.24)">
                <path d="M3415.45,1045.03C3415.45,1045.03 3415.27,1049.28 3415.11,1054.35C3415.04,1056.37 3414.96,1058.51 3414.93,1060.57C3414.83,1066.09 3414.85,1070.95 3414.85,1070.95C3414.85,1070.95 3415.39,1066.13 3415.88,1060.63C3416.06,1058.59 3416.21,1056.45 3416.36,1054.44C3416.73,1049.38 3417.01,1045.13 3417.01,1045.13L3415.45,1045.03Z" style="fill:rgb(0,112,0);"/>
            </g>
            <g transform="matrix(0.12702,-0.948064,0.968462,0.14819,897.935,3998.24)">
                <path d="M3429.77,1050.04C3429.77,1050.04 3432.75,1046.94 3436.26,1043.22C3437.66,1041.74 3439.15,1040.17 3440.56,1038.64C3444.32,1034.54 3447.55,1030.86 3447.55,1030.86C3447.55,1030.86 3443.91,1034.15 3439.87,1037.99C3438.36,1039.42 3436.81,1040.94 3435.35,1042.36C3431.69,1045.94 3428.63,1048.97 3428.63,1048.97L3429.77,1050.04Z" style="fill:rgb(0,112,0);"/>
            </g>
            <g transform="matrix(0.12702,-0.948064,0.968462,0.14819,897.935,3998.24)">
                <path d="M3428.43,1049.38C3428.43,1049.38 3427.92,1053.25 3427.36,1057.85C3427.14,1059.68 3426.89,1061.63 3426.69,1063.5C3426.16,1068.53 3425.81,1072.96 3425.81,1072.96C3425.81,1072.96 3426.72,1068.61 3427.64,1063.65C3427.98,1061.8 3428.3,1059.86 3428.6,1058.04C3429.37,1053.47 3429.98,1049.62 3429.98,1049.62L3428.43,1049.38Z" style="fill:rgb(0,112,0);"/>
            </g>
            <g transform="matrix(0.12702,-0.948064,0.968462,0.14819,897.935,3998.24)">
                <path d="M3441.91,1054.18C3441.91,1054.18 3444.69,1051.32 3447.96,1047.89C3449.27,1046.52 3450.66,1045.07 3451.97,1043.66C3455.47,1039.87 3458.48,1036.46 3458.48,1036.46C3458.48,1036.46 3455.07,1039.48 3451.28,1043C3449.87,1044.32 3448.42,1045.71 3447.06,1047.03C3443.63,1050.31 3440.78,1053.1 3440.78,1053.1L3441.91,1054.18Z" style="fill:rgb(0,112,0);"/>
            </g>
            <g transform="matrix(0.12702,-0.948064,0.968462,0.14819,897.935,3998.24)">
                <path d="M3440.56,1053.59C3440.56,1053.59 3440.41,1057.51 3440.27,1062.17C3440.22,1064.03 3440.15,1066 3440.13,1067.9C3440.06,1072.98 3440.11,1077.45 3440.11,1077.45C3440.11,1077.45 3440.62,1073.02 3441.08,1067.96C3441.24,1066.08 3441.39,1064.11 3441.52,1062.26C3441.87,1057.61 3442.13,1053.7 3442.13,1053.7L3440.56,1053.59Z" style="fill:rgb(0,112,0);"/>
            </g>
            <g transform="matrix(0.12702,-0.948064,0.968462,0.14819,897.935,3998.24)">
                <path d="M3454.63,1058.55C3454.63,1058.55 3456.79,1056.5 3459.32,1054.03C3460.33,1053.04 3461.41,1052 3462.42,1050.98C3465.13,1048.23 3467.42,1045.74 3467.42,1045.74C3467.42,1045.74 3464.74,1047.83 3461.76,1050.3C3460.65,1051.22 3459.52,1052.2 3458.46,1053.13C3455.78,1055.45 3453.55,1057.43 3453.55,1057.43L3454.63,1058.55Z" style="fill:rgb(0,112,0);"/>
            </g>
            <g transform="matrix(0.12702,-0.948064,0.968462,0.14819,897.935,3998.24)">
                <path d="M3453.31,1057.94C3453.31,1057.94 3453.2,1061.35 3453.11,1065.42C3453.07,1067.04 3453.03,1068.76 3453.02,1070.41C3453.01,1074.84 3453.1,1078.74 3453.1,1078.74C3453.1,1078.74 3453.57,1074.87 3453.97,1070.47C3454.12,1068.83 3454.24,1067.11 3454.36,1065.5C3454.66,1061.45 3454.87,1058.04 3454.87,1058.04L3453.31,1057.94Z" style="fill:rgb(0,112,0);"/>
            </g>
            <g transform="matrix(0.12702,-0.948064,0.968462,0.14819,897.935,3998.24)">
                <path d="M3467.9,1063.11C3467.9,1063.11 3469.64,1061.6 3471.68,1059.77C3472.49,1059.05 3473.35,1058.28 3474.16,1057.51C3476.33,1055.46 3478.15,1053.58 3478.15,1053.58C3478.15,1053.58 3475.96,1055.04 3473.53,1056.8C3472.63,1057.46 3471.72,1058.17 3470.85,1058.84C3468.68,1060.51 3466.87,1061.94 3466.87,1061.94L3467.9,1063.11Z" style="fill:rgb(0,112,0);"/>
            </g>
            <g transform="matrix(0.12702,-0.948064,0.968462,0.14819,897.935,3998.24)">
                <path d="M3466.61,1062.53C3466.61,1062.53 3466.73,1064.89 3466.93,1067.7C3467.01,1068.82 3467.08,1070.01 3467.19,1071.14C3467.48,1074.21 3467.85,1076.88 3467.85,1076.88C3467.85,1076.88 3468.04,1074.2 3468.14,1071.13C3468.18,1069.99 3468.18,1068.8 3468.18,1067.68C3468.2,1064.87 3468.17,1062.51 3468.17,1062.51L3466.61,1062.53Z" style="fill:rgb(0,112,0);"/>
            </g>
            <g transform="matrix(0.12702,-0.948064,0.968462,0.14819,897.935,3998.24)">
                <path d="M3368.96,1030.17L3374.27,1031.91C3374.27,1031.91 3378.17,1033.16 3384.51,1035.27C3400.95,1040.74 3433.78,1051.95 3458.07,1060.11C3465.14,1062.49 3471.45,1064.68 3476.48,1066.27C3478.66,1066.96 3480.59,1067.51 3482.22,1067.98C3485.88,1069.04 3488,1069.6 3488,1069.6C3488,1069.6 3485.98,1068.75 3482.44,1067.36C3480.86,1066.73 3478.99,1065.98 3476.84,1065.19C3471.9,1063.38 3465.56,1061.25 3458.51,1058.81C3434.31,1050.41 3401.48,1039.21 3385.12,1033.49C3378.81,1031.28 3374.96,1029.88 3374.96,1029.88C3374.96,1029.88 3369.7,1028.01 3369.7,1028.01L3368.96,1030.17Z" style="fill:rgb(0,102,0);"/>
            </g>
            <g transform="matrix(-0.867748,-0.845082,0.657451,-0.794684,4564.3,4671.15)">
                <path d="M3422.76,1017.13L3420.85,1020.31C3420.85,1020.31 3428.45,1017.26 3435.03,1018.08C3435.55,1018.17 3436.07,1018.26 3436.59,1018.36L3435.65,1021.75C3435.65,1021.75 3441.26,1019.85 3447.74,1021.03L3447.74,1021.03C3447.28,1021.78 3446.62,1025.06 3446.62,1025.06C3446.62,1025.06 3455.99,1023.12 3460.85,1025.45L3460.1,1028.73C3460.1,1028.73 3464.8,1028.47 3471.66,1030.17L3471.66,1030.17L3470.61,1032.82C3470.61,1032.82 3476.19,1032.8 3484.19,1037.8L3484.2,1037.81L3482.2,1040.5C3482.2,1040.5 3489.08,1041.49 3493.36,1046.24L3493.4,1046.28L3493.45,1046.34L3493.46,1046.35L3491.29,1048.65C3491.29,1048.65 3495.22,1049.25 3497.78,1051.86L3497.78,1051.86L3496.33,1053.08C3496.33,1053.08 3498.09,1054.04 3499.96,1055.31C3501.95,1058.75 3502.67,1061 3502.67,1061C3502.67,1061 3501.3,1062.38 3498.56,1064.27C3497.05,1064.6 3494.82,1064.85 3494.82,1064.85L3495.2,1066.39L3495.2,1066.39C3490.88,1067.96 3485.89,1067.16 3485.89,1067.16L3487.16,1070.2L3487.16,1070.2C3479.8,1072.53 3471.68,1070.7 3471.68,1070.7L3471.96,1073.97L3471.96,1073.97C3464.69,1074.31 3458.4,1070.49 3458.4,1070.49L3458.32,1074.49L3458.32,1074.49C3452.52,1074.07 3444.6,1069.06 3444.6,1069.06L3444.51,1073.35L3444.51,1073.35C3436.24,1072.15 3432.11,1067.13 3432.11,1067.13L3431.76,1071.15L3431.75,1071.15C3422.69,1069.09 3417.02,1062.35 3417.02,1062.35L3416.46,1066.5L3416.45,1066.5C3407.71,1062.59 3404,1055.01 3404,1055.01L3402.53,1058.15C3391.21,1048.85 3387.27,1037.75 3386.27,1034.3C3386.13,1033.74 3386.06,1033.35 3386.03,1033.18C3386.8,1032.25 3399.3,1017.67 3422.76,1017.13Z" style="fill:rgb(0,122,0);"/>
            </g>
            <g transform="matrix(-0.928141,-0.76292,0.569019,-0.873865,4851.16,4463.71)">
                <path d="M3387.31,1035.73C3387.31,1035.73 3390.95,1033.14 3395.27,1030.04C3396.99,1028.8 3398.81,1027.48 3400.55,1026.2C3405.22,1022.75 3409.29,1019.63 3409.29,1019.63C3409.29,1019.63 3405.02,1022.32 3400.22,1025.46C3398.42,1026.63 3396.57,1027.89 3394.82,1029.06C3390.43,1032.01 3386.75,1034.52 3386.75,1034.52L3387.31,1035.73Z" style="fill:rgb(0,112,0);"/>
            </g>
            <g transform="matrix(-0.928141,-0.76292,0.569019,-0.873865,4851.16,4463.71)">
                <path d="M3386.4,1035.2C3386.4,1035.2 3386.43,1038.23 3386.51,1041.83C3386.54,1043.26 3386.56,1044.79 3386.62,1046.24C3386.76,1050.15 3386.97,1053.57 3386.97,1053.57C3386.97,1053.57 3387.21,1050.1 3387.38,1046.15C3387.44,1044.68 3387.47,1043.15 3387.51,1041.7C3387.61,1038.09 3387.66,1035.05 3387.66,1035.05L3386.4,1035.2Z" style="fill:rgb(0,112,0);"/>
            </g>
            <g transform="matrix(-0.928141,-0.76292,0.569019,-0.873865,4851.16,4463.71)">
                <path d="M3401.96,1040.69C3401.96,1040.69 3405.8,1037.54 3410.35,1033.76C3412.16,1032.26 3414.08,1030.66 3415.91,1029.11C3420.83,1024.94 3425.11,1021.2 3425.11,1021.2C3425.11,1021.2 3420.6,1024.53 3415.53,1028.41C3413.64,1029.86 3411.68,1031.39 3409.83,1032.84C3405.2,1036.46 3401.32,1039.53 3401.32,1039.53L3401.96,1040.69Z" style="fill:rgb(0,112,0);"/>
            </g>
            <g transform="matrix(-0.928141,-0.76292,0.569019,-0.873865,4851.16,4463.71)">
                <path d="M3401.02,1040.11C3401.02,1040.11 3400.68,1044 3400.3,1048.64C3400.15,1050.49 3399.99,1052.45 3399.86,1054.33C3399.52,1059.38 3399.3,1063.81 3399.3,1063.81C3399.3,1063.81 3399.97,1059.38 3400.62,1054.33C3400.86,1052.45 3401.08,1050.49 3401.3,1048.64C3401.84,1044.01 3402.27,1040.11 3402.27,1040.11L3401.02,1040.11Z" style="fill:rgb(0,112,0);"/>
            </g>
            <g transform="matrix(-0.928141,-0.76292,0.569019,-0.873865,4851.16,4463.71)">
                <path d="M3416.61,1045.6C3416.61,1045.6 3419.92,1042.22 3423.84,1038.16C3425.4,1036.55 3427.06,1034.84 3428.63,1033.18C3432.86,1028.71 3436.52,1024.71 3436.52,1024.71C3436.52,1024.71 3432.58,1028.34 3428.17,1032.54C3426.53,1034.11 3424.83,1035.77 3423.23,1037.33C3419.21,1041.24 3415.85,1044.56 3415.85,1044.56L3416.61,1045.6Z" style="fill:rgb(0,112,0);"/>
            </g>
            <g transform="matrix(-0.928141,-0.76292,0.569019,-0.873865,4851.16,4463.71)">
                <path d="M3415.6,1045.12C3415.6,1045.12 3415.42,1049.37 3415.23,1054.42C3415.16,1056.43 3415.07,1058.57 3415.02,1060.62C3414.88,1066.12 3414.85,1070.95 3414.85,1070.95C3414.85,1070.95 3415.33,1066.09 3415.78,1060.58C3415.95,1058.53 3416.09,1056.38 3416.23,1054.36C3416.59,1049.3 3416.86,1045.05 3416.86,1045.05L3415.6,1045.12Z" style="fill:rgb(0,112,0);"/>
            </g>
            <g transform="matrix(-0.928141,-0.76292,0.569019,-0.873865,4851.16,4463.71)">
                <path d="M3429.59,1050.02C3429.59,1050.02 3432.58,1046.92 3436.12,1043.2C3437.52,1041.72 3439.02,1040.16 3440.44,1038.63C3444.25,1034.53 3447.55,1030.86 3447.55,1030.86C3447.55,1030.86 3443.98,1034.16 3439.98,1038C3438.49,1039.43 3436.95,1040.95 3435.5,1042.38C3431.86,1045.95 3428.82,1048.98 3428.82,1048.98L3429.59,1050.02Z" style="fill:rgb(0,112,0);"/>
            </g>
            <g transform="matrix(-0.928141,-0.76292,0.569019,-0.873865,4851.16,4463.71)">
                <path d="M3428.58,1049.46C3428.58,1049.46 3428.07,1053.32 3427.49,1057.91C3427.25,1059.74 3427,1061.69 3426.79,1063.55C3426.22,1068.55 3425.81,1072.96 3425.81,1072.96C3425.81,1072.96 3426.66,1068.58 3427.54,1063.6C3427.87,1061.74 3428.18,1059.81 3428.47,1057.98C3429.22,1053.4 3429.82,1049.54 3429.82,1049.54L3428.58,1049.46Z" style="fill:rgb(0,112,0);"/>
            </g>
            <g transform="matrix(-0.928141,-0.76292,0.569019,-0.873865,4851.16,4463.71)">
                <path d="M3441.72,1054.17C3441.72,1054.17 3444.52,1051.3 3447.82,1047.87C3449.13,1046.51 3450.53,1045.06 3451.86,1043.65C3455.41,1039.86 3458.48,1036.46 3458.48,1036.46C3458.48,1036.46 3455.13,1039.49 3451.39,1043.01C3450,1044.33 3448.56,1045.73 3447.21,1047.04C3443.81,1050.33 3440.96,1053.12 3440.96,1053.12L3441.72,1054.17Z" style="fill:rgb(0,112,0);"/>
            </g>
            <g transform="matrix(-0.928141,-0.76292,0.569019,-0.873865,4851.16,4463.71)">
                <path d="M3440.72,1053.68C3440.72,1053.68 3440.56,1057.59 3440.4,1062.24C3440.33,1064.1 3440.26,1066.07 3440.22,1067.95C3440.11,1073.01 3440.11,1077.45 3440.11,1077.45C3440.11,1077.45 3440.56,1072.98 3440.98,1067.91C3441.14,1066.01 3441.27,1064.04 3441.4,1062.18C3441.72,1057.52 3441.97,1053.61 3441.97,1053.61L3440.72,1053.68Z" style="fill:rgb(0,112,0);"/>
            </g>
            <g transform="matrix(-0.928141,-0.76292,0.569019,-0.873865,4851.16,4463.71)">
                <path d="M3454.45,1058.54C3454.45,1058.54 3456.62,1056.48 3459.18,1054.02C3460.2,1053.03 3461.28,1051.99 3462.31,1050.97C3465.06,1048.22 3467.42,1045.74 3467.42,1045.74C3467.42,1045.74 3464.8,1047.83 3461.87,1050.31C3460.78,1051.23 3459.66,1052.22 3458.61,1053.14C3455.95,1055.46 3453.73,1057.44 3453.73,1057.44L3454.45,1058.54Z" style="fill:rgb(0,112,0);"/>
            </g>
            <g transform="matrix(-0.928141,-0.76292,0.569019,-0.873865,4851.16,4463.71)">
                <path d="M3453.46,1058.03C3453.46,1058.03 3453.34,1061.44 3453.23,1065.49C3453.19,1067.1 3453.14,1068.82 3453.12,1070.46C3453.06,1074.87 3453.1,1078.74 3453.1,1078.74C3453.1,1078.74 3453.51,1074.84 3453.88,1070.41C3454.01,1068.76 3454.13,1067.04 3454.24,1065.42C3454.51,1061.36 3454.72,1057.95 3454.72,1057.95L3453.46,1058.03Z" style="fill:rgb(0,112,0);"/>
            </g>
            <g transform="matrix(-0.928141,-0.76292,0.569019,-0.873865,4851.16,4463.71)">
                <path d="M3467.72,1063.09C3467.72,1063.09 3469.47,1061.59 3471.53,1059.76C3472.35,1059.03 3473.22,1058.27 3474.05,1057.5C3476.26,1055.45 3478.15,1053.58 3478.15,1053.58C3478.15,1053.58 3476.03,1055.05 3473.65,1056.81C3472.76,1057.47 3471.86,1058.18 3471,1058.85C3468.85,1060.52 3467.06,1061.95 3467.06,1061.95L3467.72,1063.09Z" style="fill:rgb(0,112,0);"/>
            </g>
            <g transform="matrix(-0.928141,-0.76292,0.569019,-0.873865,4851.16,4463.71)">
                <path d="M3466.76,1062.63C3466.76,1062.63 3466.88,1064.98 3467.05,1067.78C3467.12,1068.89 3467.19,1070.07 3467.28,1071.2C3467.54,1074.24 3467.85,1076.88 3467.85,1076.88C3467.85,1076.88 3467.99,1074.16 3468.05,1071.07C3468.07,1069.92 3468.06,1068.73 3468.06,1067.61C3468.05,1064.78 3468.02,1062.42 3468.02,1062.42L3466.76,1062.63Z" style="fill:rgb(0,112,0);"/>
            </g>
            <g transform="matrix(-0.928141,-0.76292,0.569019,-0.873865,4851.16,4463.71)">
                <path d="M3368.97,1030.13L3374.28,1031.87C3374.28,1031.87 3378.18,1033.12 3384.52,1035.23C3400.96,1040.71 3433.79,1051.92 3458.08,1060.09C3465.14,1062.47 3471.46,1064.66 3476.48,1066.25C3478.66,1066.94 3480.6,1067.49 3482.23,1067.97C3485.88,1069.03 3488,1069.6 3488,1069.6C3488,1069.6 3485.97,1068.76 3482.43,1067.37C3480.85,1066.75 3478.98,1066 3476.84,1065.21C3471.89,1063.4 3465.55,1061.27 3458.51,1058.83C3434.3,1050.44 3401.47,1039.24 3385.11,1033.52C3378.8,1031.32 3374.95,1029.92 3374.95,1029.92C3374.95,1029.92 3369.69,1028.05 3369.69,1028.05L3368.97,1030.13Z" style="fill:rgb(0,102,0);"/>
            </g>
            <g transform="matrix(-1.30973,-0.378546,0.220627,-1.12446,6490,3496.08)">
                <path d="M3422.76,1017.13L3420.85,1020.31C3420.85,1020.31 3428.45,1017.26 3435.03,1018.08C3435.55,1018.17 3436.07,1018.26 3436.59,1018.36L3435.65,1021.75C3435.65,1021.75 3441.26,1019.85 3447.74,1021.03L3447.74,1021.03C3447.28,1021.78 3446.62,1025.06 3446.62,1025.06C3446.62,1025.06 3455.99,1023.12 3460.85,1025.45L3460.1,1028.73C3460.1,1028.73 3464.8,1028.47 3471.66,1030.17L3471.66,1030.17L3470.61,1032.82C3470.61,1032.82 3476.19,1032.8 3484.19,1037.8L3484.2,1037.81L3482.2,1040.5C3482.2,1040.5 3489.08,1041.49 3493.36,1046.24L3493.4,1046.28L3493.45,1046.34L3493.46,1046.35L3491.29,1048.65C3491.29,1048.65 3495.22,1049.25 3497.78,1051.86L3497.78,1051.86L3496.33,1053.08C3496.33,1053.08 3498.09,1054.04 3499.96,1055.31C3501.95,1058.75 3502.67,1061 3502.67,1061C3502.67,1061 3501.3,1062.38 3498.56,1064.27C3497.05,1064.6 3494.82,1064.85 3494.82,1064.85L3495.2,1066.39L3495.2,1066.39C3490.88,1067.96 3485.89,1067.16 3485.89,1067.16L3487.16,1070.2L3487.16,1070.2C3479.8,1072.53 3471.68,1070.7 3471.68,1070.7L3471.96,1073.97L3471.96,1073.97C3464.69,1074.31 3458.4,1070.49 3458.4,1070.49L3458.32,1074.49L3458.32,1074.49C3452.52,1074.07 3444.6,1069.06 3444.6,1069.06L3444.51,1073.35L3444.51,1073.35C3436.24,1072.15 3432.11,1067.13 3432.11,1067.13L3431.76,1071.15L3431.75,1071.15C3422.69,1069.09 3417.02,1062.35 3417.02,1062.35L3416.46,1066.5L3416.45,1066.5C3407.71,1062.59 3404,1055.01 3404,1055.01L3402.53,1058.15C3391.21,1048.85 3387.27,1037.75 3386.27,1034.3C3386.13,1033.74 3386.06,1033.35 3386.03,1033.18C3386.8,1032.25 3399.3,1017.67 3422.76,1017.13Z" style="fill:rgb(0,122,0);"/>
            </g>
            <g transform="matrix(-1.32507,-0.266242,0.0908856,-1.15621,6661.17,3142.44)">
                <path d="M3387.27,1035.67C3387.27,1035.67 3390.92,1033.09 3395.24,1029.99C3396.96,1028.75 3398.79,1027.44 3400.53,1026.16C3405.21,1022.73 3409.29,1019.63 3409.29,1019.63C3409.29,1019.63 3405.03,1022.34 3400.24,1025.5C3398.45,1026.68 3396.6,1027.93 3394.85,1029.11C3390.46,1032.07 3386.79,1034.58 3386.79,1034.58L3387.27,1035.67Z" style="fill:rgb(0,112,0);"/>
            </g>
            <g transform="matrix(-1.32507,-0.266242,0.0908856,-1.15621,6661.17,3142.44)">
                <path d="M3386.47,1035.2C3386.47,1035.2 3386.5,1038.23 3386.56,1041.83C3386.59,1043.26 3386.61,1044.78 3386.66,1046.24C3386.78,1050.15 3386.97,1053.57 3386.97,1053.57C3386.97,1053.57 3387.18,1050.1 3387.34,1046.15C3387.39,1044.68 3387.42,1043.15 3387.46,1041.71C3387.54,1038.09 3387.59,1035.05 3387.59,1035.05L3386.47,1035.2Z" style="fill:rgb(0,112,0);"/>
            </g>
            <g transform="matrix(-1.32507,-0.266242,0.0908856,-1.15621,6661.17,3142.44)">
                <path d="M3401.92,1040.63C3401.92,1040.63 3405.76,1037.48 3410.31,1033.72C3412.12,1032.21 3414.05,1030.62 3415.89,1029.08C3420.81,1024.92 3425.11,1021.2 3425.11,1021.2C3425.11,1021.2 3420.61,1024.55 3415.55,1028.44C3413.66,1029.9 3411.71,1031.44 3409.87,1032.88C3405.24,1036.51 3401.36,1039.59 3401.36,1039.59L3401.92,1040.63Z" style="fill:rgb(0,112,0);"/>
            </g>
            <g transform="matrix(-1.32507,-0.266242,0.0908856,-1.15621,6661.17,3142.44)">
                <path d="M3401.09,1040.11C3401.09,1040.11 3400.74,1044.01 3400.36,1048.64C3400.2,1050.49 3400.04,1052.45 3399.9,1054.33C3399.54,1059.38 3399.3,1063.81 3399.3,1063.81C3399.3,1063.81 3399.94,1059.38 3400.58,1054.33C3400.81,1052.45 3401.03,1050.49 3401.24,1048.64C3401.78,1044 3402.2,1040.11 3402.2,1040.11L3401.09,1040.11Z" style="fill:rgb(0,112,0);"/>
            </g>
            <g transform="matrix(-1.32507,-0.266242,0.0908856,-1.15621,6661.17,3142.44)">
                <path d="M3416.56,1045.55C3416.56,1045.55 3419.88,1042.17 3423.8,1038.12C3425.36,1036.51 3427.03,1034.8 3428.61,1033.14C3432.84,1028.69 3436.52,1024.71 3436.52,1024.71C3436.52,1024.71 3432.6,1028.36 3428.2,1032.57C3426.56,1034.14 3424.86,1035.81 3423.27,1037.37C3419.25,1041.29 3415.89,1044.61 3415.89,1044.61L3416.56,1045.55Z" style="fill:rgb(0,112,0);"/>
            </g>
            <g transform="matrix(-1.32507,-0.266242,0.0908856,-1.15621,6661.17,3142.44)">
                <path d="M3415.67,1045.12C3415.67,1045.12 3415.48,1049.37 3415.29,1054.42C3415.21,1056.44 3415.12,1058.58 3415.06,1060.62C3414.91,1066.12 3414.85,1070.95 3414.85,1070.95C3414.85,1070.95 3415.31,1066.09 3415.74,1060.58C3415.9,1058.52 3416.04,1056.38 3416.18,1054.36C3416.52,1049.3 3416.79,1045.04 3416.79,1045.04L3415.67,1045.12Z" style="fill:rgb(0,112,0);"/>
            </g>
            <g transform="matrix(-1.32507,-0.266242,0.0908856,-1.15621,6661.17,3142.44)">
                <path d="M3429.54,1049.97C3429.54,1049.97 3432.53,1046.87 3436.08,1043.16C3437.49,1041.69 3438.99,1040.12 3440.41,1038.6C3444.24,1034.52 3447.55,1030.86 3447.55,1030.86C3447.55,1030.86 3443.99,1034.18 3440.01,1038.03C3438.52,1039.47 3436.98,1040.99 3435.54,1042.42C3431.9,1046 3428.86,1049.04 3428.86,1049.04L3429.54,1049.97Z" style="fill:rgb(0,112,0);"/>
            </g>
            <g transform="matrix(-1.32507,-0.266242,0.0908856,-1.15621,6661.17,3142.44)">
                <path d="M3428.65,1049.47C3428.65,1049.47 3428.13,1053.33 3427.54,1057.92C3427.3,1059.75 3427.05,1061.69 3426.83,1063.56C3426.24,1068.56 3425.81,1072.96 3425.81,1072.96C3425.81,1072.96 3426.64,1068.58 3427.5,1063.6C3427.82,1061.74 3428.13,1059.8 3428.42,1057.97C3429.16,1053.39 3429.75,1049.54 3429.75,1049.54L3428.65,1049.47Z" style="fill:rgb(0,112,0);"/>
            </g>
            <g transform="matrix(-1.32507,-0.266242,0.0908856,-1.15621,6661.17,3142.44)">
                <path d="M3441.68,1054.12C3441.68,1054.12 3444.47,1051.26 3447.78,1047.83C3449.1,1046.47 3450.5,1045.02 3451.83,1043.62C3455.39,1039.84 3458.48,1036.46 3458.48,1036.46C3458.48,1036.46 3455.15,1039.5 3451.42,1043.05C3450.03,1044.37 3448.6,1045.77 3447.24,1047.08C3443.85,1050.38 3441.01,1053.17 3441.01,1053.17L3441.68,1054.12Z" style="fill:rgb(0,112,0);"/>
            </g>
            <g transform="matrix(-1.32507,-0.266242,0.0908856,-1.15621,6661.17,3142.44)">
                <path d="M3440.78,1053.68C3440.78,1053.68 3440.62,1057.59 3440.45,1062.25C3440.39,1064.1 3440.31,1066.07 3440.26,1067.95C3440.14,1073.01 3440.11,1077.45 3440.11,1077.45C3440.11,1077.45 3440.54,1072.98 3440.94,1067.9C3441.09,1066.01 3441.22,1064.04 3441.34,1062.18C3441.66,1057.52 3441.9,1053.6 3441.9,1053.6L3440.78,1053.68Z" style="fill:rgb(0,112,0);"/>
            </g>
            <g transform="matrix(-1.32507,-0.266242,0.0908856,-1.15621,6661.17,3142.44)">
                <path d="M3454.4,1058.48C3454.4,1058.48 3456.57,1056.43 3459.14,1053.97C3460.16,1052.99 3461.25,1051.95 3462.28,1050.94C3465.04,1048.21 3467.42,1045.74 3467.42,1045.74C3467.42,1045.74 3464.82,1047.85 3461.9,1050.34C3460.81,1051.27 3459.7,1052.26 3458.64,1053.18C3455.99,1055.52 3453.78,1057.5 3453.78,1057.5L3454.4,1058.48Z" style="fill:rgb(0,112,0);"/>
            </g>
            <g transform="matrix(-1.32507,-0.266242,0.0908856,-1.15621,6661.17,3142.44)">
                <path d="M3453.53,1058.03C3453.53,1058.03 3453.41,1061.44 3453.29,1065.49C3453.24,1067.11 3453.19,1068.82 3453.16,1070.46C3453.09,1074.87 3453.1,1078.74 3453.1,1078.74C3453.1,1078.74 3453.49,1074.84 3453.84,1070.41C3453.97,1068.76 3454.08,1067.04 3454.18,1065.42C3454.45,1061.36 3454.65,1057.95 3454.65,1057.95L3453.53,1058.03Z" style="fill:rgb(0,112,0);"/>
            </g>
            <g transform="matrix(-1.32507,-0.266242,0.0908856,-1.15621,6661.17,3142.44)">
                <path d="M3467.68,1063.04C3467.68,1063.04 3469.43,1061.53 3471.49,1059.72C3472.32,1058.99 3473.19,1058.23 3474.02,1057.47C3476.24,1055.44 3478.15,1053.58 3478.15,1053.58C3478.15,1053.58 3476.04,1055.07 3473.67,1056.85C3472.79,1057.51 3471.89,1058.22 3471.03,1058.89C3468.89,1060.57 3467.1,1062.01 3467.1,1062.01L3467.68,1063.04Z" style="fill:rgb(0,112,0);"/>
            </g>
            <g transform="matrix(-1.32507,-0.266242,0.0908856,-1.15621,6661.17,3142.44)">
                <path d="M3466.83,1062.62C3466.83,1062.62 3466.94,1064.98 3467.11,1067.77C3467.17,1068.89 3467.24,1070.07 3467.33,1071.2C3467.56,1074.24 3467.85,1076.88 3467.85,1076.88C3467.85,1076.88 3467.96,1074.16 3468,1071.08C3468.02,1069.93 3468.01,1068.74 3468,1067.61C3467.99,1064.79 3467.95,1062.42 3467.95,1062.42L3466.83,1062.62Z" style="fill:rgb(0,112,0);"/>
            </g>
            <g transform="matrix(-1.32507,-0.266242,0.0908856,-1.15621,6661.17,3142.44)">
                <path d="M3369.01,1030.03L3374.31,1031.77C3374.31,1031.77 3378.21,1033.03 3384.55,1035.15C3400.99,1040.64 3433.82,1051.85 3458.1,1060.03C3465.16,1062.41 3471.48,1064.6 3476.5,1066.2C3478.68,1066.89 3480.61,1067.46 3482.24,1067.94C3485.88,1069.02 3488,1069.6 3488,1069.6C3488,1069.6 3485.97,1068.77 3482.42,1067.4C3480.84,1066.78 3478.97,1066.05 3476.82,1065.26C3471.87,1063.46 3465.53,1061.33 3458.49,1058.89C3434.28,1050.52 3401.44,1039.31 3385.08,1033.61C3378.77,1031.4 3374.91,1030.02 3374.91,1030.02C3374.91,1030.02 3369.65,1028.15 3369.65,1028.15L3369.01,1030.03Z" style="fill:rgb(0,102,0);"/>
            </g>
            <g transform="matrix(-1.35696,-0.140663,-0.0152697,-1.08201,6879.62,2723.8)">
                <path d="M3422.76,1017.13L3420.85,1020.31C3420.85,1020.31 3428.45,1017.26 3435.03,1018.08C3435.55,1018.17 3436.07,1018.26 3436.59,1018.36L3435.65,1021.75C3435.65,1021.75 3441.26,1019.85 3447.74,1021.03L3447.74,1021.03C3447.28,1021.78 3446.62,1025.06 3446.62,1025.06C3446.62,1025.06 3455.99,1023.12 3460.85,1025.45L3460.1,1028.73C3460.1,1028.73 3464.8,1028.47 3471.66,1030.17L3471.66,1030.17L3470.61,1032.82C3470.61,1032.82 3476.19,1032.8 3484.19,1037.8L3484.2,1037.81L3482.2,1040.5C3482.2,1040.5 3489.08,1041.49 3493.36,1046.24L3493.4,1046.28L3493.45,1046.34L3493.46,1046.35L3491.29,1048.65C3491.29,1048.65 3495.22,1049.25 3497.78,1051.86L3497.78,1051.86L3496.33,1053.08C3496.33,1053.08 3498.09,1054.04 3499.96,1055.31C3501.95,1058.75 3502.67,1061 3502.67,1061C3502.67,1061 3501.3,1062.38 3498.56,1064.27C3497.05,1064.6 3494.82,1064.85 3494.82,1064.85L3495.2,1066.39L3495.2,1066.39C3490.88,1067.96 3485.89,1067.16 3485.89,1067.16L3487.16,1070.2L3487.16,1070.2C3479.8,1072.53 3471.68,1070.7 3471.68,1070.7L3471.96,1073.97L3471.96,1073.97C3464.69,1074.31 3458.4,1070.49 3458.4,1070.49L3458.32,1074.49L3458.32,1074.49C3452.52,1074.07 3444.6,1069.06 3444.6,1069.06L3444.51,1073.35L3444.51,1073.35C3436.24,1072.15 3432.11,1067.13 3432.11,1067.13L3431.76,1071.15L3431.75,1071.15C3422.69,1069.09 3417.02,1062.35 3417.02,1062.35L3416.46,1066.5L3416.45,1066.5C3407.71,1062.59 3404,1055.01 3404,1055.01L3402.53,1058.15C3391.21,1048.85 3387.27,1037.75 3386.27,1034.3C3386.13,1033.74 3386.06,1033.35 3386.03,1033.18C3386.8,1032.25 3399.3,1017.67 3422.76,1017.13Z" style="fill:rgb(0,122,0);"/>
            </g>
            <g transform="matrix(-1.34889,-0.0336799,-0.14851,-1.0906,6974.23,2367.07)">
                <path d="M3387.24,1035.71C3387.24,1035.71 3390.89,1033.13 3395.22,1030.02C3396.94,1028.78 3398.77,1027.47 3400.51,1026.19C3405.2,1022.75 3409.29,1019.63 3409.29,1019.63C3409.29,1019.63 3405.04,1022.32 3400.25,1025.47C3398.47,1026.65 3396.62,1027.9 3394.87,1029.08C3390.49,1032.03 3386.82,1034.54 3386.82,1034.54L3387.24,1035.71Z" style="fill:rgb(0,112,0);"/>
            </g>
            <g transform="matrix(-1.34889,-0.0336799,-0.14851,-1.0906,6974.23,2367.07)">
                <path d="M3386.47,1035.23C3386.47,1035.23 3386.5,1038.26 3386.56,1041.85C3386.59,1043.28 3386.61,1044.81 3386.66,1046.26C3386.78,1050.16 3386.97,1053.57 3386.97,1053.57C3386.97,1053.57 3387.19,1050.09 3387.34,1046.13C3387.39,1044.66 3387.43,1043.12 3387.46,1041.68C3387.55,1038.06 3387.59,1035.02 3387.59,1035.02L3386.47,1035.23Z" style="fill:rgb(0,112,0);"/>
            </g>
            <g transform="matrix(-1.34889,-0.0336799,-0.14851,-1.0906,6974.23,2367.07)">
                <path d="M3401.9,1040.67C3401.9,1040.67 3405.74,1037.52 3410.29,1033.75C3412.11,1032.24 3414.04,1030.65 3415.87,1029.1C3420.8,1024.94 3425.11,1021.2 3425.11,1021.2C3425.11,1021.2 3420.62,1024.54 3415.57,1028.42C3413.68,1029.87 3411.73,1031.41 3409.89,1032.85C3405.26,1036.48 3401.39,1039.55 3401.39,1039.55L3401.9,1040.67Z" style="fill:rgb(0,112,0);"/>
            </g>
            <g transform="matrix(-1.34889,-0.0336799,-0.14851,-1.0906,6974.23,2367.07)">
                <path d="M3401.08,1040.13C3401.08,1040.13 3400.74,1044.03 3400.35,1048.66C3400.2,1050.51 3400.03,1052.47 3399.9,1054.35C3399.54,1059.39 3399.3,1063.81 3399.3,1063.81C3399.3,1063.81 3399.94,1059.37 3400.58,1054.31C3400.82,1052.43 3401.04,1050.47 3401.25,1048.62C3401.78,1043.98 3402.2,1040.08 3402.2,1040.08L3401.08,1040.13Z" style="fill:rgb(0,112,0);"/>
            </g>
            <g transform="matrix(-1.34889,-0.0336799,-0.14851,-1.0906,6974.23,2367.07)">
                <path d="M3416.54,1045.59C3416.54,1045.59 3419.86,1042.2 3423.78,1038.15C3425.35,1036.54 3427.01,1034.83 3428.59,1033.16C3432.83,1028.71 3436.52,1024.71 3436.52,1024.71C3436.52,1024.71 3432.61,1028.34 3428.21,1032.55C3426.58,1034.12 3424.88,1035.78 3423.28,1037.34C3419.27,1041.26 3415.92,1044.58 3415.92,1044.58L3416.54,1045.59Z" style="fill:rgb(0,112,0);"/>
            </g>
            <g transform="matrix(-1.34889,-0.0336799,-0.14851,-1.0906,6974.23,2367.07)">
                <path d="M3415.67,1045.15C3415.67,1045.15 3415.48,1049.4 3415.28,1054.44C3415.2,1056.46 3415.12,1058.6 3415.06,1060.64C3414.9,1066.13 3414.85,1070.95 3414.85,1070.95C3414.85,1070.95 3415.31,1066.08 3415.74,1060.56C3415.9,1058.5 3416.04,1056.36 3416.18,1054.34C3416.53,1049.27 3416.79,1045.02 3416.79,1045.02L3415.67,1045.15Z" style="fill:rgb(0,112,0);"/>
            </g>
            <g transform="matrix(-1.34889,-0.0336799,-0.14851,-1.0906,6974.23,2367.07)">
                <path d="M3429.52,1050.01C3429.52,1050.01 3432.51,1046.9 3436.06,1043.19C3437.47,1041.71 3438.98,1040.14 3440.4,1038.62C3444.23,1034.53 3447.55,1030.86 3447.55,1030.86C3447.55,1030.86 3444,1034.17 3440.02,1038.01C3438.53,1039.44 3437,1040.96 3435.56,1042.39C3431.93,1045.97 3428.89,1049 3428.89,1049L3429.52,1050.01Z" style="fill:rgb(0,112,0);"/>
            </g>
            <g transform="matrix(-1.34889,-0.0336799,-0.14851,-1.0906,6974.23,2367.07)">
                <path d="M3428.65,1049.49C3428.65,1049.49 3428.13,1053.35 3427.54,1057.94C3427.3,1059.77 3427.05,1061.71 3426.83,1063.57C3426.24,1068.56 3425.81,1072.96 3425.81,1072.96C3425.81,1072.96 3426.64,1068.57 3427.5,1063.58C3427.82,1061.72 3428.13,1059.78 3428.42,1057.96C3429.16,1053.37 3429.76,1049.52 3429.76,1049.52L3428.65,1049.49Z" style="fill:rgb(0,112,0);"/>
            </g>
            <g transform="matrix(-1.34889,-0.0336799,-0.14851,-1.0906,6974.23,2367.07)">
                <path d="M3441.66,1054.15C3441.66,1054.15 3444.45,1051.29 3447.76,1047.86C3449.08,1046.49 3450.48,1045.05 3451.81,1043.64C3455.38,1039.86 3458.48,1036.46 3458.48,1036.46C3458.48,1036.46 3455.16,1039.49 3451.43,1043.02C3450.05,1044.34 3448.61,1045.74 3447.26,1047.05C3443.87,1050.35 3441.03,1053.14 3441.03,1053.14L3441.66,1054.15Z" style="fill:rgb(0,112,0);"/>
            </g>
            <g transform="matrix(-1.34889,-0.0336799,-0.14851,-1.0906,6974.23,2367.07)">
                <path d="M3440.78,1053.71C3440.78,1053.71 3440.62,1057.62 3440.45,1062.27C3440.38,1064.12 3440.31,1066.09 3440.26,1067.97C3440.14,1073.02 3440.11,1077.45 3440.11,1077.45C3440.11,1077.45 3440.54,1072.97 3440.94,1067.89C3441.09,1065.99 3441.22,1064.02 3441.35,1062.16C3441.66,1057.5 3441.91,1053.58 3441.91,1053.58L3440.78,1053.71Z" style="fill:rgb(0,112,0);"/>
            </g>
            <g transform="matrix(-1.34889,-0.0336799,-0.14851,-1.0906,6974.23,2367.07)">
                <path d="M3454.38,1058.52C3454.38,1058.52 3456.55,1056.47 3459.12,1054C3460.14,1053.02 3461.23,1051.98 3462.26,1050.96C3465.03,1048.22 3467.42,1045.74 3467.42,1045.74C3467.42,1045.74 3464.83,1047.84 3461.91,1050.32C3460.83,1051.24 3459.71,1052.23 3458.66,1053.16C3456.01,1055.48 3453.8,1057.46 3453.8,1057.46L3454.38,1058.52Z" style="fill:rgb(0,112,0);"/>
            </g>
            <g transform="matrix(-1.34889,-0.0336799,-0.14851,-1.0906,6974.23,2367.07)">
                <path d="M3453.53,1058.06C3453.53,1058.06 3453.4,1061.47 3453.29,1065.51C3453.24,1067.13 3453.18,1068.84 3453.16,1070.48C3453.09,1074.88 3453.1,1078.74 3453.1,1078.74C3453.1,1078.74 3453.49,1074.83 3453.84,1070.39C3453.97,1068.74 3454.08,1067.02 3454.18,1065.4C3454.45,1061.34 3454.65,1057.92 3454.65,1057.92L3453.53,1058.06Z" style="fill:rgb(0,112,0);"/>
            </g>
            <g transform="matrix(-1.34889,-0.0336799,-0.14851,-1.0906,6974.23,2367.07)">
                <path d="M3467.65,1063.08C3467.65,1063.08 3469.4,1061.57 3471.47,1059.75C3472.3,1059.02 3473.18,1058.25 3474.01,1057.49C3476.24,1055.45 3478.15,1053.58 3478.15,1053.58C3478.15,1053.58 3476.05,1055.05 3473.69,1056.82C3472.81,1057.48 3471.91,1058.19 3471.05,1058.86C3468.91,1060.54 3467.13,1061.97 3467.13,1061.97L3467.65,1063.08Z" style="fill:rgb(0,112,0);"/>
            </g>
            <g transform="matrix(-1.34889,-0.0336799,-0.14851,-1.0906,6974.23,2367.07)">
                <path d="M3466.83,1062.66C3466.83,1062.66 3466.94,1065.01 3467.11,1067.8C3467.17,1068.91 3467.24,1070.09 3467.32,1071.22C3467.56,1074.25 3467.85,1076.88 3467.85,1076.88C3467.85,1076.88 3467.97,1074.15 3468.01,1071.05C3468.02,1069.9 3468.01,1068.71 3468,1067.58C3467.99,1064.76 3467.95,1062.39 3467.95,1062.39L3466.83,1062.66Z" style="fill:rgb(0,112,0);"/>
            </g>
            <g transform="matrix(-1.34889,-0.0336799,-0.14851,-1.0906,6974.23,2367.07)">
                <path d="M3368.99,1030.09L3374.29,1031.83C3374.29,1031.83 3378.2,1033.09 3384.54,1035.2C3400.97,1040.68 3433.81,1051.89 3458.09,1060.07C3465.15,1062.44 3471.47,1064.63 3476.49,1066.23C3478.67,1066.92 3480.6,1067.48 3482.23,1067.95C3485.88,1069.03 3488,1069.6 3488,1069.6C3488,1069.6 3485.97,1068.76 3482.43,1067.38C3480.85,1066.76 3478.97,1066.02 3476.83,1065.23C3471.88,1063.43 3465.54,1061.3 3458.5,1058.86C3434.29,1050.47 3401.46,1039.27 3385.1,1033.56C3378.79,1031.35 3374.93,1029.96 3374.93,1029.96C3374.93,1029.96 3369.67,1028.09 3369.67,1028.09L3368.99,1030.09Z" style="fill:rgb(0,102,0);"/>
            </g>
            <g transform="matrix(-1.059,0.0901935,-0.111815,-1.00273,5967.49,1930.63)">
                <path d="M3422.76,1017.13L3420.85,1020.31C3420.85,1020.31 3428.45,1017.26 3435.03,1018.08C3435.55,1018.17 3436.07,1018.26 3436.59,1018.36L3435.65,1021.75C3435.65,1021.75 3441.26,1019.85 3447.74,1021.03L3447.74,1021.03C3447.28,1021.78 3446.62,1025.06 3446.62,1025.06C3446.62,1025.06 3455.99,1023.12 3460.85,1025.45L3460.1,1028.73C3460.1,1028.73 3464.8,1028.47 3471.66,1030.17L3471.66,1030.17L3470.61,1032.82C3470.61,1032.82 3476.19,1032.8 3484.19,1037.8L3484.2,1037.81L3482.2,1040.5C3482.2,1040.5 3489.08,1041.49 3493.36,1046.24L3493.4,1046.28L3493.45,1046.34L3493.46,1046.35L3491.29,1048.65C3491.29,1048.65 3495.22,1049.25 3497.78,1051.86L3497.78,1051.86L3496.33,1053.08C3496.33,1053.08 3498.09,1054.04 3499.96,1055.31C3501.95,1058.75 3502.67,1061 3502.67,1061C3502.67,1061 3501.3,1062.38 3498.56,1064.27C3497.05,1064.6 3494.82,1064.85 3494.82,1064.85L3495.2,1066.39L3495.2,1066.39C3490.88,1067.96 3485.89,1067.16 3485.89,1067.16L3487.16,1070.2L3487.16,1070.2C3479.8,1072.53 3471.68,1070.7 3471.68,1070.7L3471.96,1073.97L3471.96,1073.97C3464.69,1074.31 3458.4,1070.49 3458.4,1070.49L3458.32,1074.49L3458.32,1074.49C3452.52,1074.07 3444.6,1069.06 3444.6,1069.06L3444.51,1073.35L3444.51,1073.35C3436.24,1072.15 3432.11,1067.13 3432.11,1067.13L3431.76,1071.15L3431.75,1071.15C3422.69,1069.09 3417.02,1062.35 3417.02,1062.35L3416.46,1066.5L3416.45,1066.5C3407.71,1062.59 3404,1055.01 3404,1055.01L3402.53,1058.15C3391.21,1048.85 3387.27,1037.75 3386.27,1034.3C3386.13,1033.74 3386.06,1033.35 3386.03,1033.18C3386.8,1032.25 3399.3,1017.67 3422.76,1017.13Z" style="fill:rgb(0,122,0);"/>
            </g>
            <g transform="matrix(-1.04289,0.188271,-0.215315,-0.989023,6007.44,1583.82)">
                <path d="M3387.41,1035.74C3387.41,1035.74 3391.04,1033.15 3395.34,1030.04C3397.06,1028.8 3398.88,1027.49 3400.61,1026.2C3405.26,1022.75 3409.29,1019.63 3409.29,1019.63C3409.29,1019.63 3404.99,1022.31 3400.16,1025.46C3398.36,1026.63 3396.49,1027.88 3394.74,1029.06C3390.34,1032.01 3386.65,1034.51 3386.65,1034.51L3387.41,1035.74Z" style="fill:rgb(0,112,0);"/>
            </g>
            <g transform="matrix(-1.04289,0.188271,-0.215315,-0.989023,6007.44,1583.82)">
                <path d="M3386.32,1035.15C3386.32,1035.15 3386.36,1038.18 3386.44,1041.79C3386.48,1043.22 3386.51,1044.75 3386.57,1046.21C3386.73,1050.13 3386.97,1053.57 3386.97,1053.57C3386.97,1053.57 3387.24,1050.12 3387.43,1046.18C3387.49,1044.71 3387.53,1043.19 3387.58,1041.75C3387.68,1038.14 3387.74,1035.1 3387.74,1035.1L3386.32,1035.15Z" style="fill:rgb(0,112,0);"/>
            </g>
            <g transform="matrix(-1.04289,0.188271,-0.215315,-0.989023,6007.44,1583.82)">
                <path d="M3402.06,1040.69C3402.06,1040.69 3405.89,1037.54 3410.43,1033.76C3412.23,1032.26 3414.15,1030.67 3415.97,1029.11C3420.86,1024.94 3425.11,1021.2 3425.11,1021.2C3425.11,1021.2 3420.56,1024.53 3415.47,1028.41C3413.57,1029.85 3411.6,1031.39 3409.75,1032.83C3405.11,1036.45 3401.22,1039.53 3401.22,1039.53L3402.06,1040.69Z" style="fill:rgb(0,112,0);"/>
            </g>
            <g transform="matrix(-1.04289,0.188271,-0.215315,-0.989023,6007.44,1583.82)">
                <path d="M3400.94,1040.06C3400.94,1040.06 3400.6,1043.96 3400.24,1048.6C3400.09,1050.45 3399.93,1052.42 3399.81,1054.3C3399.49,1059.36 3399.3,1063.81 3399.3,1063.81C3399.3,1063.81 3399.99,1059.4 3400.67,1054.36C3400.92,1052.49 3401.14,1050.53 3401.36,1048.68C3401.92,1044.05 3402.35,1040.16 3402.35,1040.16L3400.94,1040.06Z" style="fill:rgb(0,112,0);"/>
            </g>
            <g transform="matrix(-1.04289,0.188271,-0.215315,-0.989023,6007.44,1583.82)">
                <path d="M3416.71,1045.61C3416.71,1045.61 3420.01,1042.22 3423.92,1038.17C3425.47,1036.55 3427.13,1034.84 3428.69,1033.18C3432.89,1028.71 3436.52,1024.71 3436.52,1024.71C3436.52,1024.71 3432.55,1028.34 3428.11,1032.54C3426.46,1034.11 3424.76,1035.77 3423.15,1037.33C3419.12,1041.24 3415.75,1044.55 3415.75,1044.55L3416.71,1045.61Z" style="fill:rgb(0,112,0);"/>
            </g>
            <g transform="matrix(-1.04289,0.188271,-0.215315,-0.989023,6007.44,1583.82)">
                <path d="M3415.52,1045.07C3415.52,1045.07 3415.34,1049.32 3415.17,1054.38C3415.1,1056.4 3415.02,1058.54 3414.97,1060.59C3414.85,1066.1 3414.85,1070.95 3414.85,1070.95C3414.85,1070.95 3415.36,1066.11 3415.83,1060.61C3416,1058.56 3416.15,1056.42 3416.3,1054.4C3416.66,1049.35 3416.94,1045.1 3416.94,1045.1L3415.52,1045.07Z" style="fill:rgb(0,112,0);"/>
            </g>
            <g transform="matrix(-1.04289,0.188271,-0.215315,-0.989023,6007.44,1583.82)">
                <path d="M3429.69,1050.03C3429.69,1050.03 3432.67,1046.92 3436.19,1043.21C3437.6,1041.73 3439.09,1040.16 3440.5,1038.63C3444.29,1034.53 3447.55,1030.86 3447.55,1030.86C3447.55,1030.86 3443.94,1034.16 3439.92,1038C3438.42,1039.43 3436.88,1040.95 3435.42,1042.37C3431.77,1045.95 3428.72,1048.98 3428.72,1048.98L3429.69,1050.03Z" style="fill:rgb(0,112,0);"/>
            </g>
            <g transform="matrix(-1.04289,0.188271,-0.215315,-0.989023,6007.44,1583.82)">
                <path d="M3428.5,1049.42C3428.5,1049.42 3427.99,1053.28 3427.42,1057.88C3427.19,1059.71 3426.95,1061.66 3426.74,1063.52C3426.19,1068.54 3425.81,1072.96 3425.81,1072.96C3425.81,1072.96 3426.69,1068.6 3427.59,1063.63C3427.92,1061.78 3428.24,1059.84 3428.54,1058.02C3429.3,1053.44 3429.9,1049.59 3429.9,1049.59L3428.5,1049.42Z" style="fill:rgb(0,112,0);"/>
            </g>
            <g transform="matrix(-1.04289,0.188271,-0.215315,-0.989023,6007.44,1583.82)">
                <path d="M3441.82,1054.17C3441.82,1054.17 3444.61,1051.31 3447.89,1047.88C3449.2,1046.51 3450.6,1045.06 3451.91,1043.65C3455.44,1039.86 3458.48,1036.46 3458.48,1036.46C3458.48,1036.46 3455.1,1039.48 3451.33,1043.01C3449.93,1044.33 3448.49,1045.72 3447.13,1047.04C3443.71,1050.33 3440.86,1053.12 3440.86,1053.12L3441.82,1054.17Z" style="fill:rgb(0,112,0);"/>
            </g>
            <g transform="matrix(-1.04289,0.188271,-0.215315,-0.989023,6007.44,1583.82)">
                <path d="M3440.64,1053.63C3440.64,1053.63 3440.48,1057.55 3440.33,1062.2C3440.27,1064.06 3440.2,1066.03 3440.17,1067.92C3440.08,1072.99 3440.11,1077.45 3440.11,1077.45C3440.11,1077.45 3440.59,1073 3441.03,1067.94C3441.19,1066.05 3441.33,1064.08 3441.46,1062.22C3441.8,1057.57 3442.05,1053.66 3442.05,1053.66L3440.64,1053.63Z" style="fill:rgb(0,112,0);"/>
            </g>
            <g transform="matrix(-1.04289,0.188271,-0.215315,-0.989023,6007.44,1583.82)">
                <path d="M3454.55,1058.54C3454.55,1058.54 3456.71,1056.49 3459.26,1054.02C3460.27,1053.04 3461.35,1052 3462.37,1050.97C3465.1,1048.23 3467.42,1045.74 3467.42,1045.74C3467.42,1045.74 3464.77,1047.83 3461.81,1050.31C3460.71,1051.23 3459.59,1052.21 3458.53,1053.14C3455.86,1055.46 3453.63,1057.44 3453.63,1057.44L3454.55,1058.54Z" style="fill:rgb(0,112,0);"/>
            </g>
            <g transform="matrix(-1.04289,0.188271,-0.215315,-0.989023,6007.44,1583.82)">
                <path d="M3453.38,1057.98C3453.38,1057.98 3453.27,1061.39 3453.17,1065.45C3453.13,1067.07 3453.08,1068.78 3453.07,1070.43C3453.03,1074.85 3453.1,1078.74 3453.1,1078.74C3453.1,1078.74 3453.54,1074.86 3453.93,1070.44C3454.07,1068.8 3454.19,1067.08 3454.3,1065.47C3454.59,1061.41 3454.8,1058 3454.8,1058L3453.38,1057.98Z" style="fill:rgb(0,112,0);"/>
            </g>
            <g transform="matrix(-1.04289,0.188271,-0.215315,-0.989023,6007.44,1583.82)">
                <path d="M3467.82,1063.1C3467.82,1063.1 3469.56,1061.59 3471.61,1059.76C3472.42,1059.04 3473.29,1058.27 3474.11,1057.51C3476.3,1055.45 3478.15,1053.58 3478.15,1053.58C3478.15,1053.58 3475.99,1055.04 3473.59,1056.81C3472.69,1057.47 3471.78,1058.18 3470.92,1058.85C3468.76,1060.52 3466.96,1061.95 3466.96,1061.95L3467.82,1063.1Z" style="fill:rgb(0,112,0);"/>
            </g>
            <g transform="matrix(-1.04289,0.188271,-0.215315,-0.989023,6007.44,1583.82)">
                <path d="M3466.68,1062.57C3466.68,1062.57 3466.8,1064.93 3466.99,1067.73C3467.06,1068.85 3467.13,1070.03 3467.24,1071.17C3467.51,1074.22 3467.85,1076.88 3467.85,1076.88C3467.85,1076.88 3468.02,1074.18 3468.09,1071.11C3468.12,1069.96 3468.12,1068.77 3468.12,1067.65C3468.12,1064.84 3468.1,1062.47 3468.1,1062.47L3466.68,1062.57Z" style="fill:rgb(0,112,0);"/>
            </g>
            <g transform="matrix(-1.04289,0.188271,-0.215315,-0.989023,6007.44,1583.82)">
                <path d="M3368.97,1030.15L3374.28,1031.88C3374.28,1031.88 3378.18,1033.13 3384.52,1035.25C3400.96,1040.72 3433.79,1051.93 3458.07,1060.1C3465.14,1062.47 3471.46,1064.67 3476.48,1066.26C3478.66,1066.95 3480.6,1067.5 3482.23,1067.97C3485.88,1069.03 3488,1069.6 3488,1069.6C3488,1069.6 3485.97,1068.76 3482.43,1067.36C3480.86,1066.74 3478.99,1065.99 3476.84,1065.2C3471.89,1063.39 3465.56,1061.26 3458.51,1058.82C3434.3,1050.43 3401.47,1039.23 3385.11,1033.51C3378.81,1031.3 3374.95,1029.9 3374.95,1029.9C3374.95,1029.9 3369.69,1028.03 3369.69,1028.03L3368.97,1030.15Z" style="fill:rgb(0,102,0);"/>
            </g>
            <g transform="matrix(0.995162,-0.0982449,0.0982449,0.995162,-696.212,457.12)">
                <path d="M2867.44,1116.15C2867.44,1116.15 2867.53,1112.44 2868.49,1106.61C2868.69,1105.36 2869.05,1104.04 2869.36,1102.62C2872.63,1087.74 2877.81,1063.83 2880.53,1049.27C2883.76,1032.18 2886.13,1012.89 2889.3,993.879C2890.62,985.955 2892.08,978.079 2893.8,970.429C2897.71,953.026 2901.12,936.583 2906.32,918.355C2909.32,907.852 2912.92,896.758 2917.55,884.54C2923.53,868.763 2930.09,852.829 2936.09,838.811C2947.13,813.042 2956.24,793.742 2956.24,793.742L2954.21,792.769C2954.21,792.769 2944.89,812.018 2933.57,837.715C2927.41,851.705 2920.64,867.603 2914.47,883.354C2909.66,895.616 2905.91,906.761 2902.75,917.31C2897.3,935.547 2893.64,952.006 2889.47,969.426C2887.63,977.132 2886.04,985.071 2884.59,993.059C2881.15,1011.98 2878.47,1031.18 2874.99,1048.18C2872.01,1062.64 2866.42,1086.37 2862.88,1101.13C2862.55,1102.54 2862.3,1103.89 2861.93,1105.1C2860.24,1110.74 2858.68,1114.1 2858.68,1114.1L2867.44,1116.15Z" style="fill:url(#_Linear1);"/>
            </g>
        </g>
        <g transform="matrix(1.22144,0,0,0.712322,-794.074,667.204)">
            <rect x="1043.69" y="834.174" width="418.79" height="718.113" style="fill-opacity:0;"/>
        </g>
    </g>
    <defs>
        <linearGradient id="_Linear1" x1="0" y1="0" x2="1" y2="0" gradientUnits="userSpaceOnUse" gradientTransform="matrix(92.1665,0,0,321.873,2863.06,954.192)"><stop offset="0" style="stop-color:rgb(122,67,25);stop-opacity:1"/><stop offset="0.45" style="stop-color:rgb(87,95,5);stop-opacity:1"/><stop offset="1" style="stop-color:rgb(78,102,0);stop-opacity:1"/></linearGradient>
    </defs>
</svg>
